<svg width="147" height="170" fill="none" xmlns="http://www.w3.org/2000/svg"><circle cx="73.5" cy="73.5" r="73.5" fill="#F4F3F0"/><path d="M92.943 53.025H55.297a25.212 25.212 0 1037.646 0z" fill="#fff" stroke="#231F20" stroke-width="3" stroke-miterlimit="10"/><path d="M50.463 60.97s20.722 15.887 42.827-7.945" stroke="#231F20" stroke-width="3" stroke-miterlimit="10"/><path d="M63.414 92.57v6.045M84.828 92.57v6.045" stroke="#231F20" stroke-width="3" stroke-miterlimit="10" stroke-linecap="round"/><path d="M82.065 156.466l20.895-10.184a2.848 2.848 0 001.555-2.59v-28.154a3.206 3.206 0 00-1.555-2.591l-12.088-6.216h-8.116" fill="#fff"/><path d="M82.065 156.466l20.895-10.184a2.848 2.848 0 001.555-2.59v-28.154a3.206 3.206 0 00-1.555-2.591l-12.088-6.216h-8.116" stroke="#00BC70" stroke-width="3" stroke-miterlimit="10"/><path d="M65.493 106.731h-8.295l-12.088 6.216a2.851 2.851 0 00-1.555 2.591v28.149a3.204 3.204 0 001.555 2.595l20.724 10.016" fill="#fff"/><path d="M65.493 106.731h-8.295l-12.088 6.216a2.851 2.851 0 00-1.555 2.591v28.149a3.204 3.204 0 001.555 2.595l20.724 10.016" stroke="#00BC70" stroke-width="3" stroke-miterlimit="10"/><path d="M78.956 102.932h-9.67l-3.8 3.799v4.663l4.484 4.484h8.29l4.483-4.484v-4.663l-3.787-3.799z" fill="#fff" stroke="#231F20" stroke-width="3" stroke-miterlimit="10" stroke-linejoin="round"/><path d="M82.239 159.056l-2.764-44.381-1.21 1.209h-8.289l-1.209-1.209-2.762 44.381L74.122 167l8.117-7.944z" fill="#fff" stroke="#231F20" stroke-width="3" stroke-miterlimit="10"/><path d="M90.526 123.482h3.627" stroke="#231F20" stroke-width="3" stroke-miterlimit="10" stroke-linecap="round"/><path d="M93.29 53.025H54.78v-13.47A1.704 1.704 0 0156.506 38h35.228a1.548 1.548 0 011.555 1.555l.002 13.47z" fill="#fff" stroke="#00BC70" stroke-width="3" stroke-miterlimit="10"/></svg>