<svg width="62" height="33" fill="none" xmlns="http://www.w3.org/2000/svg"><path fill="#fff" stroke="#00BC70" stroke-width="3" stroke-miterlimit="10" stroke-linejoin="round" d="M1.707 2.261h58.585V30.74H1.707z"/><path fill-rule="evenodd" clip-rule="evenodd" d="M1.707 12.014A7.73 7.73 0 008.76 2.261h43.666a7.73 7.73 0 007.866 9.753v8.158a7.73 7.73 0 00-7.595 10.568H8.49a7.73 7.73 0 00-6.782-10.568v-8.158z" fill="#fff"/><path d="M1.707 12.014l-.078-1.498a1.5 1.5 0 00-1.422 1.498h1.5zM8.76 2.261v-1.5a1.5 1.5 0 00-1.447 1.894L8.76 2.26zm43.666 0l1.447.394A1.5 1.5 0 0052.426.76v1.5zm7.866 9.753h1.5a1.5 1.5 0 00-1.577-1.498l.077 1.498zm0 8.158l-.077 1.498a1.5 1.5 0 001.577-1.498h-1.5zM52.697 30.74v1.5a1.5 1.5 0 001.395-2.053l-1.395.553zm-44.208 0l-1.395-.553A1.5 1.5 0 008.49 32.24v-1.5zM1.707 20.172h-1.5a1.5 1.5 0 001.422 1.498l.078-1.498zM7.53 4.295a6.23 6.23 0 01-5.9 6.221l.155 2.996a9.23 9.23 0 008.745-9.217h-3zm-.217-1.64c.141.52.217 1.07.217 1.64h3c0-.838-.112-1.653-.322-2.428l-2.895.788zM52.426.76H8.76v3h43.666v-3zm1.23 3.534c0-.57.076-1.12.217-1.64l-2.895-.788a9.24 9.24 0 00-.322 2.428h3zm6.23 6.23a6.23 6.23 0 01-6.23-6.23h-3a9.23 9.23 0 009.23 9.23v-3zm.329-.009a6.4 6.4 0 01-.33.009v3c.163 0 .324-.005.485-.013l-.155-2.996zm1.577 9.656v-8.158h-3v8.158h3zm-1.907 1.49c.111 0 .22.002.33.008l.155-2.996a9.379 9.379 0 00-.484-.013v3zm-6.23 6.23a6.23 6.23 0 016.23-6.23v-3a9.23 9.23 0 00-9.23 9.23h3zm.437 2.295a6.211 6.211 0 01-.436-2.296h-3c0 1.199.229 2.347.647 3.402l2.789-1.106zM8.489 32.24h44.208v-3H8.49v3zm-.959-4.348a6.21 6.21 0 01-.436 2.295l2.789 1.106a9.21 9.21 0 00.647-3.401h-3zm-5.9-6.222a6.23 6.23 0 015.9 6.222h3a9.23 9.23 0 00-8.745-9.218l-.156 2.996zM.206 12.014v8.158h3v-8.158h-3z" fill="#00BC70"/><ellipse cx="31" cy="16.5" rx="12.205" ry="14.239" fill="#fff" stroke="#00BC70" stroke-width="3" stroke-miterlimit="10" stroke-linejoin="round"/></svg>