<svg width="32" height="32" fill="none" xmlns="http://www.w3.org/2000/svg"><path d="M25.575 9.79a7.977 7.977 0 01-1.909 1.968 10.815 10.815 0 01-.436 3.559 11.054 11.054 0 01-1.361 2.93 11.512 11.512 0 01-2.175 2.48 9.68 9.68 0 01-3.041 1.721c-1.222.434-2.51.651-3.807.642A10.571 10.571 0 017 21.375c.305.033.612.049.919.047a7.454 7.454 0 004.726-1.626 3.815 3.815 0 01-3.559-2.64c.238.038.478.057.719.06.338-.001.674-.045 1-.13a3.746 3.746 0 01-2.186-1.315 3.678 3.678 0 01-.866-2.422v-.05a3.777 3.777 0 001.721.482 3.8 3.8 0 01-1.697-3.23c.01-.655.189-1.295.518-1.86a10.792 10.792 0 003.471 2.81 10.608 10.608 0 004.379 1.173 4.225 4.225 0 01-.094-.872 3.812 3.812 0 016.589-2.6 7.462 7.462 0 002.416-.919 3.7 3.7 0 01-1.674 2.1 7.584 7.584 0 002.193-.593z" fill="#fff"/></svg>