<svg width="32" height="32" fill="none" xmlns="http://www.w3.org/2000/svg"><path d="M7.248 24.108h4.068V11.889H7.248v12.219zm4.332-15.99a2.08 2.08 0 00-.634-1.516 2.25 2.25 0 00-1.638-.6 2.344 2.344 0 00-1.664.6A1.98 1.98 0 007 8.117a2.015 2.015 0 00.625 1.507 2.24 2.24 0 001.629.607h.018a2.317 2.317 0 001.673-.607 1.999 1.999 0 00.634-1.503v-.004zm10.3 15.99h4.068v-7.01a5.848 5.848 0 00-1.286-4.1 4.408 4.408 0 00-3.4-1.39 4.094 4.094 0 00-3.681 2.06h.035v-1.78h-4.068c.035.775.035 4.85 0 12.223h4.068v-6.834a2.917 2.917 0 01.123-.986 2.72 2.72 0 01.793-1.048c.369-.292.83-.445 1.3-.43 1.362 0 2.043.921 2.043 2.765l.005 6.53z" fill="#fff"/></svg>