<svg width="147" height="170" fill="none" xmlns="http://www.w3.org/2000/svg"><circle cx="73.5" cy="73.5" r="73.5" fill="#F4F3F0"/><path fill="#fff" d="M26 84h95v70H26z"/><path fill="#fff" d="M46 59h55v95H46z"/><path d="M26 146V84h20M121 146V84h-20M101 154V59H46v95" stroke="#231F20" stroke-width="3" stroke-miterlimit="10" stroke-linecap="round" stroke-linejoin="round"/><path fill-rule="evenodd" clip-rule="evenodd" d="M90.65 59h-34.3c1.622-7.988 8.684-14 17.15-14s15.528 6.012 17.15 14z" fill="#fff"/><path d="M56.35 59l-1.47-.299-.365 1.799h1.835V59zm34.3 0v1.5h1.835L92.12 58.7 90.65 59zm-34.3 1.5h34.3v-3h-34.3v3zm1.47-1.202C59.303 51.996 65.761 46.5 73.5 46.5v-3c-9.194 0-16.86 6.528-18.62 15.201l2.94.597zM73.5 46.5c7.739 0 14.198 5.496 15.68 12.798l2.94-.597C90.36 50.028 82.694 43.5 73.5 43.5v3z" fill="#231F20"/><path d="M57 78v6h11M57 89v6h11M57 100v6h11M57 111v6h11M57 67v6h11M79 78v6h11M79 89v6h11M79 100v6h11M79 111v6h11M110 90v6h11M26 90v6h11M110 101v6h11M26 101v6h11M110 112v6h11M26 112v6h11M110 122.999v6h11M26 122.999v6h11M79 67v6h11" stroke="#231F20" stroke-width="3" stroke-miterlimit="10"/><path fill="#fff" stroke="#00BC70" stroke-width="3" stroke-miterlimit="10" stroke-linejoin="round" d="M38 129h33v8H38zM38 137h33v8H38zM38 145h33v8H38zM38 153h33v8H38z"/></svg>