<svg width="147" height="170" fill="none" xmlns="http://www.w3.org/2000/svg"><circle cx="73.5" cy="73.5" r="73.5" fill="#F4F3F0"/><rect x="54" y="53" width="40" height="77" rx="7" fill="#fff"/><path d="M68.086 130.679v0a12.522 12.522 0 0011.54 7.663h9.432" stroke="#231F20" stroke-width="3" stroke-linecap="round"/><mask id="a" fill="#fff"><path fill-rule="evenodd" clip-rule="evenodd" d="M83.146 97.758a11.77 11.77 0 001.853-6.357 11.723 11.723 0 00-.806-4.396 11.367 11.367 0 00-2.382-3.728 10.865 10.865 0 00-3.584-2.478A10.52 10.52 0 0074 79.96a10.7 10.7 0 00-6.111 1.928 11.356 11.356 0 00-4.052 5.135 11.867 11.867 0 00-.626 6.61 11.59 11.59 0 003.01 5.858 10.874 10.874 0 005.633 3.131c2.133.442 4.345.215 6.355-.651a11.104 11.104 0 004.937-4.213zm-5.733-4.582a3.835 3.835 0 00-.38-1.577c-.132-.276-.357-.455-.545-.605-.082-.065-.156-.124-.213-.183a2.627 2.627 0 00-1.138-.396A2.324 2.324 0 0074 90.218a.954.954 0 01-.422-.109.992.992 0 01-.336-.286c-.19-.198-.38-.395-.38-.593a.723.723 0 01.19-.591.665.665 0 01.568-.197h.57c.19 0 .19 0 .38.197l.19.198.19.197c.222.157.49.227.757.198.38 0 .57-.198.948-.593.073-.151.146-.274.208-.378.1-.168.172-.29.172-.41 0-.196-.19-.395-.38-.593l-.57-.395c-.095 0-.142-.049-.213-.123a1.245 1.245 0 00-.356-.272 1.106 1.106 0 00-.758-.197v-1.577c0-.099-.048-.148-.095-.198-.048-.049-.095-.098-.095-.197-.19-.198-.38-.198-.758-.198h-.57c-.095 0-.142.05-.19.1-.047.049-.095.098-.19.098 0 .197 0 .197-.19.395v1.579a3.63 3.63 0 00-1.707.985 3.267 3.267 0 00-.57 1.776 4.87 4.87 0 00.38 1.776c.33.386.714.718 1.138.986.413.222.864.356 1.327.395.19.1.38.149.57.198.189.05.378.099.568.198.38.197.38.395.38.592 0 .788-.38.986-1.138.986a1.59 1.59 0 01-.626-.177 1.652 1.652 0 01-.512-.415c-.38-.593-.57-.789-.948-.789-.117 0-.235.076-.397.18-.1.065-.217.14-.36.215a1.815 1.815 0 00-.57.986c0 .122.073.245.173.414.062.104.134.225.207.374l.19.198c.215.244.472.445.757.593l1.138.592v1.579c0 .197 0 .197.19.395 0 .122.073.168.173.233.062.04.135.086.207.162h1.138c.095 0 .142-.05.19-.099.047-.05.095-.099.19-.099 0-.098.047-.148.095-.197.047-.05.095-.099.095-.198v-1.776a3.63 3.63 0 001.707-.986 4.24 4.24 0 00.758-2.174z"/></mask><path fill-rule="evenodd" clip-rule="evenodd" d="M83.146 97.758a11.77 11.77 0 001.853-6.357 11.723 11.723 0 00-.806-4.396 11.367 11.367 0 00-2.382-3.728 10.865 10.865 0 00-3.584-2.478A10.52 10.52 0 0074 79.96a10.7 10.7 0 00-6.111 1.928 11.356 11.356 0 00-4.052 5.135 11.867 11.867 0 00-.626 6.61 11.59 11.59 0 003.01 5.858 10.874 10.874 0 005.633 3.131c2.133.442 4.345.215 6.355-.651a11.104 11.104 0 004.937-4.213zm-5.733-4.582a3.835 3.835 0 00-.38-1.577c-.132-.276-.357-.455-.545-.605-.082-.065-.156-.124-.213-.183a2.627 2.627 0 00-1.138-.396A2.324 2.324 0 0074 90.218a.954.954 0 01-.422-.109.992.992 0 01-.336-.286c-.19-.198-.38-.395-.38-.593a.723.723 0 01.19-.591.665.665 0 01.568-.197h.57c.19 0 .19 0 .38.197l.19.198.19.197c.222.157.49.227.757.198.38 0 .57-.198.948-.593.073-.151.146-.274.208-.378.1-.168.172-.29.172-.41 0-.196-.19-.395-.38-.593l-.57-.395c-.095 0-.142-.049-.213-.123a1.245 1.245 0 00-.356-.272 1.106 1.106 0 00-.758-.197v-1.577c0-.099-.048-.148-.095-.198-.048-.049-.095-.098-.095-.197-.19-.198-.38-.198-.758-.198h-.57c-.095 0-.142.05-.19.1-.047.049-.095.098-.19.098 0 .197 0 .197-.19.395v1.579a3.63 3.63 0 00-1.707.985 3.267 3.267 0 00-.57 1.776 4.87 4.87 0 00.38 1.776c.33.386.714.718 1.138.986.413.222.864.356 1.327.395.19.1.38.149.57.198.189.05.378.099.568.198.38.197.38.395.38.592 0 .788-.38.986-1.138.986a1.59 1.59 0 01-.626-.177 1.652 1.652 0 01-.512-.415c-.38-.593-.57-.789-.948-.789-.117 0-.235.076-.397.18-.1.065-.217.14-.36.215a1.815 1.815 0 00-.57.986c0 .122.073.245.173.414.062.104.134.225.207.374l.19.198c.215.244.472.445.757.593l1.138.592v1.579c0 .197 0 .197.19.395 0 .122.073.168.173.233.062.04.135.086.207.162h1.138c.095 0 .142-.05.19-.099.047-.05.095-.099.19-.099 0-.098.047-.148.095-.197.047-.05.095-.099.095-.198v-1.776a3.63 3.63 0 001.707-.986 4.24 4.24 0 00.758-2.174z" fill="#00BC70"/><path d="M85 91.401l-1-.01v.01h1zm-.807-4.396l-.931.365.93-.365zm-2.382-3.728l.721-.694-.72.694zm-3.584-2.478l.39-.92-.39.92zM74 79.96v1h.01l-.01-1zm-6.111 1.928l.57.822-.57-.822zm-4.052 5.135l-.929-.37.93.37zm2.385 12.468l.72-.693-.72.693zm5.632 3.131l.202-.979-.202.979zm6.355-.651l-.396-.918.396.918zm-.796-8.795l.998.062.003-.043-.001-.043-1 .024zm-.38-1.577l-.901.433v.002l.901-.435zm-.545-.605l-.624.782.624-.782zm-.213-.183l.721-.694-.084-.087-.102-.064-.535.845zm-1.138-.396l-.41.913.148.066.16.016.103-.995zM74 90.218l-.02 1h.05l.05-.003-.08-.997zm-.758-.395l.8-.6-.037-.049-.042-.044-.721.693zm-.38-.593h1v-.068l-.01-.068-.99.136zm.028-.319l-.953-.305.953.305zm.162-.272l-.721-.693.72.693zm.568-.197l-.147.989.073.01h.074v-1zm.95.197l-.721.694.006.007.007.007.708-.708zm0 0l.72-.693-.007-.007-.006-.007-.707.707zm.19.198l.72-.693-.72.693zm.19.197l-.722.694.067.069.078.055.576-.818zm.757.198v-1h-.054l-.054.006.108.994zm.948-.593l.723.692.11-.115.068-.143-.9-.434zm.208-.378l-.86-.511.86.51zm-.208-1.003l.721-.693-.07-.072-.081-.056-.57.821zm-.57-.395l.57-.821-.257-.179h-.313v1zm-.213-.123l.72-.693-.72.693zm-.356-.272l-.576.818.055.038.06.032.46-.888zm-.758-.197h-1v1.115l1.108-.121-.108-.994zm-.19-1.972h1v-.403l-.28-.29-.72.693zm-1.708 0v-1h-1v1h1zm-.19.395l-.72-.693-.28.29v.403h1zm0 1.579l.244.97.756-.19v-.78h-1zm-1.707.985l-.715-.7-.06.063-.05.07.825.567zm-.57 1.776l-1-.022v.046l1-.024zm.38 1.776l-.922.389.061.144.102.118.759-.65zm1.138.986l-.535.845.03.02.032.017.473-.882zm1.327.395l.462-.887-.178-.092-.2-.017-.084.997zm.57.198l.251-.968-.252.968zm.568.198l-.461.887.461-.887zm-.758 1.578l-.068.998.034.002h.034v-1zm-.626-.177l-.462.887.462-.887zm-.512-.415l-.842.54.032.049.038.046.772-.635zm-1.345-.608l-.542-.84.542.84zm-.36.214l-.464-.886-.108.056-.09.081.662.75zm-.57.986l-.979-.207-.021.103v.104h1zm.173.414l-.859.512.86-.512zm.207.374l-.9.435.068.144.11.115.722-.694zm.19.198l.748-.663-.013-.015-.015-.015-.72.693zm.757.593l.462-.887-.001-.001-.46.888zm1.138.592h1v-.606l-.538-.28-.462.886zm.19 1.974h1v-.403l-.279-.29-.72.693zm.173.233l.54-.841-.54.841zm.207.162l-.72.693.294.307h.426v-1zm1.328-.099l-.721-.693.72.693zm.19-.099v1h1v-1h-1zm.19-2.17l-.244-.97-.756.19v.78h1zm1.707-.987l.715.7.056-.058.047-.067-.818-.575zM84 91.401a10.77 10.77 0 01-1.695 5.816l1.683 1.081a12.77 12.77 0 002.012-6.897h-2zm-.737-4.031c.5 1.275.751 2.642.737 4.021l2 .02a12.724 12.724 0 00-.875-4.772l-1.862.73zm-2.172-3.4a10.37 10.37 0 012.172 3.4l1.862-.73a12.37 12.37 0 00-2.592-4.057L81.09 83.97zm-3.254-2.25a9.867 9.867 0 013.254 2.25l1.442-1.387a11.866 11.866 0 00-3.914-2.704l-.782 1.84zm-3.826-.76a9.52 9.52 0 013.826.76l.782-1.841a11.52 11.52 0 00-4.63-.919l.022 2zm-5.55 1.75A9.7 9.7 0 0174 80.96v-2a11.7 11.7 0 00-6.682 2.107l1.141 1.643zm-3.694 4.683a10.357 10.357 0 013.693-4.683l-1.141-1.643a12.355 12.355 0 00-4.41 5.586l1.858.74zm-.572 6.052a10.868 10.868 0 01.572-6.052l-1.858-.74a12.867 12.867 0 00-.679 7.168l1.965-.376zm2.749 5.353a10.59 10.59 0 01-2.75-5.353l-1.964.376a12.587 12.587 0 003.272 6.363l1.442-1.386zm5.113 2.845a9.874 9.874 0 01-5.113-2.845l-1.442 1.386a11.873 11.873 0 006.15 3.418l.405-1.959zm5.757-.59a9.604 9.604 0 01-5.757.59l-.405 1.959c2.336.483 4.756.235 6.954-.712l-.792-1.837zm4.491-3.836a10.104 10.104 0 01-4.49 3.836l.79 1.837a12.11 12.11 0 005.383-4.592l-1.683-1.08zm-3.891-4.065a4.836 4.836 0 00-.48-1.988l-1.8.87c.174.36.27.76.28 1.166l2-.048zm-.478-1.986c-.246-.51-.654-.819-.824-.954l-1.247 1.564c.1.079.156.125.204.174a.325.325 0 01.064.082l1.802-.866zm-.824-.954a4.11 4.11 0 01-.093-.076l-.022-.018-1.442 1.386c.112.116.244.219.31.272l1.247-1.564zm-.301-.246a3.626 3.626 0 00-1.57-.545l-.204 1.99c.247.025.488.108.704.245l1.07-1.69zm-1.263-.463a3.323 3.323 0 00-1.627-.282l.16 1.994c.22-.018.442.02.648.113l.82-1.825zm-1.527-.285c.009 0 .016.002.02.005l-.925 1.773c.267.14.562.216.864.222l.041-2zm.02.005c.004.002.004.003.002 0l-1.601 1.199c.178.238.408.435.674.574l.925-1.773zm-.077-.093a5.964 5.964 0 01-.118-.125.83.83 0 01-.053-.063c-.007-.01.007.007.024.049a.622.622 0 01.046.24h-2c0 .412.193.722.308.88.12.168.269.32.35.405l1.443-1.386zm-.11-.036a.277.277 0 01-.011.123l-1.905-.61a1.725 1.725 0 00-.066.76l1.982-.273zm-.011.123a.299.299 0 01-.07.115l-1.441-1.386a1.701 1.701 0 00-.394.66l1.905.61zm-.07.115a.334.334 0 01-.131.084l-.655-1.89c-.25.087-.474.232-.655.42l1.441 1.386zm-.131.084a.354.354 0 01-.168.015l.294-1.978a1.645 1.645 0 00-.781.073l.655 1.89zm-.021.026h.57v-2h-.57v2zm.57 0h.042l-.033-.002a.746.746 0 01-.28-.086.752.752 0 01-.146-.099l.02.02c.014.014.03.032.056.057l1.441-1.386c-.04-.041-.097-.1-.15-.15a1.342 1.342 0 00-.3-.217c-.308-.16-.633-.137-.65-.137v2zm-.328-.095l1.415-1.415-1.415 1.415zm-.013-.014l.19.197 1.441-1.386-.19-.198-1.441 1.386zm.19.197l.19.198 1.441-1.387-.19-.197-1.442 1.386zm.334.322c.419.295.93.43 1.443.374l-.217-1.988a.107.107 0 01-.074-.02l-1.152 1.634zm1.334.38c.876 0 1.355-.571 1.67-.901l-1.444-1.383a8.32 8.32 0 01-.226.23.881.881 0 01-.096.085c-.004.003.013-.01.046-.02.034-.011.056-.011.05-.011v2zm1.85-1.16c.051-.107.103-.195.165-.3l-1.718-1.022c-.063.104-.156.26-.25.456l1.802.867zm.165-.3c.042-.07.116-.192.173-.316.06-.133.14-.343.14-.605h-2c0-.07.01-.129.021-.168.01-.038.02-.06.022-.062l-.017.03a5.462 5.462 0 01-.058.099l1.72 1.022zm.313-.92c0-.414-.194-.724-.307-.88-.12-.168-.268-.32-.352-.407l-1.442 1.386c.05.051.085.09.117.124a.862.862 0 01.053.064c.008.01-.006-.006-.023-.047a.625.625 0 01-.046-.24h2zm-.81-1.415l-.57-.395-1.14 1.643.57.395 1.14-1.643zm-1.14-.574a.787.787 0 01.437.133c.048.032.078.06.086.067l-.015-.016-1.442 1.386c.039.04.361.43.934.43v-2zm.508.184a2.236 2.236 0 00-.616-.466l-.923 1.775a.266.266 0 01.097.077l1.442-1.386zm-.501-.396a2.106 2.106 0 00-1.443-.374l.217 1.988a.106.106 0 01.074.02l1.152-1.634zm-.334.62v-1.577h-2v1.577h2zm0-1.577c0-.523-.312-.825-.374-.89l-1.442 1.386c.036.037-.028-.022-.08-.114a.775.775 0 01-.104-.382h2zm-.374-.89c-.036-.038.027.021.08.113.069.119.104.254.104.382h-2c0 .523.31.825.374.89l1.442-1.386zm-.095-.198a1.56 1.56 0 00-.826-.459c-.242-.05-.501-.046-.653-.046v2a11.641 11.641 0 01.21.003c.046.002.051.004.035.001a.427.427 0 01-.208-.113l1.442-1.386zm-1.48-.505h-.569v2h.57v-2zm-.569 0c-.55 0-.859.352-.91.406l1.441 1.386c.037-.039-.022.03-.114.088a.796.796 0 01-.417.12v-2zm-.91.406c-.038.039.02-.03.114-.087a.796.796 0 01.416-.121v2c.55 0 .859-.352.911-.406l-1.442-1.386zm-.47.792h2-2zm0 0v.046l.002-.024a.725.725 0 01.073-.258.744.744 0 01.081-.132l.008-.009-.004.005a1.472 1.472 0 01-.07.074l1.441 1.386c.04-.042.097-.1.145-.156.05-.058.134-.16.202-.301.143-.298.122-.606.122-.631h-2zm-.19.395v1.579h2v-1.579h-2zm.756.609a4.631 4.631 0 00-2.178 1.256l1.43 1.399a2.63 2.63 0 011.236-.716l-.488-1.94zm-2.287 1.389a4.266 4.266 0 00-.746 2.32l2 .045c.01-.446.149-.876.394-1.232l-1.648-1.133zm-.746 2.366c.018.737.173 1.464.458 2.141l1.843-.777a3.869 3.869 0 01-.301-1.411l-2 .047zm.62 2.403c.395.46.854.858 1.363 1.18l1.07-1.69a4.08 4.08 0 01-.914-.791l-1.518 1.302zm1.425 1.217c.532.285 1.116.46 1.716.51l.168-1.993a2.414 2.414 0 01-.939-.28l-.945 1.763zm1.339.4c.304.159.6.232.778.279l.504-1.936a1.705 1.705 0 01-.36-.117l-.922 1.775zm.778.279c.2.052.284.078.36.117l.922-1.775c-.304-.158-.6-.231-.778-.278l-.504 1.936zm.36.117c.072.037-.031.002-.108-.158a.54.54 0 01-.05-.166c-.002-.02-.001-.03-.001.03h2c0-.074.014-.397-.146-.73-.172-.358-.465-.59-.773-.75l-.922 1.774zm-.16-.295c0 .06-.003.1-.006.124-.004.024-.007.028-.003.019a.382.382 0 01.11-.142c.056-.045.09-.044.048-.035a.817.817 0 01-.103.014c-.049.004-.11.006-.183.006v2c.408 0 .995-.04 1.468-.409.54-.42.67-1.043.67-1.577h-2zm-.069-.012a.59.59 0 01-.232-.066l-.924 1.774c.316.165.663.263 1.02.288l.136-1.996zm-.232-.066a.651.651 0 01-.201-.164l-1.545 1.27c.226.276.505.503.822.668l.924-1.774zm-.132-.068c-.184-.287-.396-.603-.662-.833a1.664 1.664 0 00-1.127-.416v2c.006 0-.03 0-.084-.019a.329.329 0 01-.097-.053c-.001 0 .023.02.076.092.054.07.12.167.21.308l1.684-1.08zm-1.79-1.249c-.276 0-.495.09-.627.156-.125.062-.245.141-.312.184l1.083 1.681.094-.06c.023-.014.03-.017.026-.014-.004.001-.105.053-.264.053v-2zm-.94.34a3.46 3.46 0 01-.28.169l.926 1.772c.188-.098.339-.196.438-.26l-1.083-1.68zm-.48.306c-.453.4-.761.938-.886 1.528l1.957.414a.816.816 0 01.254-.444l-1.325-1.498zm-.907 1.735c0 .262.079.473.14.607.058.126.132.248.174.319l1.718-1.024a5.225 5.225 0 01-.058-.099l-.017-.031c.001.002.011.024.022.061a.65.65 0 01.02.167h-2zm.314.926c.062.104.114.191.165.297l1.801-.87c-.093-.193-.186-.347-.248-.451l-1.718 1.024zm.345.556l.19.197 1.441-1.386-.19-.198-1.441 1.386zm.162.167c.296.334.65.612 1.046.817l.92-1.775a1.63 1.63 0 01-.469-.368l-1.497 1.326zm1.044.817l1.138.592.924-1.774-1.138-.592-.924 1.773zm.6-.295v1.579h2v-1.579h-2zm0 1.579c0 .024-.02.333.123.63.067.141.151.244.201.302.048.055.105.114.145.156l1.442-1.386a7.696 7.696 0 01-.07-.074l-.004-.005a.297.297 0 01.026.035.743.743 0 01.116.255.716.716 0 01.02.108c.002.02.002.032.001.025v-.046h-2zm.19.395c0 .297.102.575.297.797.142.162.32.267.335.277l1.082-1.682-.019-.012a.814.814 0 01.305.62h-2zm.632 1.074a1.881 1.881 0 01.043.028s-.002 0-.005-.004a.194.194 0 01-.01-.01l1.44-1.386c-.16-.168-.323-.27-.386-.31l-1.082 1.682zm.748.32h1.138v-2H73.24v2zm1.138 0c.55 0 .858-.35.91-.405l-1.441-1.386c-.037.039.021-.03.114-.087a.796.796 0 01.417-.121v2zm.91-.405c.038-.039-.021.03-.114.088a.796.796 0 01-.416.12v-2c-.55 0-.859.352-.911.406l1.442 1.386zm.47-.792a.775.775 0 01-.105.383c-.052.091-.115.15-.08.113l-1.441-1.386c-.063.065-.374.367-.374.89h2zm-.184.496c.062-.066.374-.368.374-.89h-2c0-.129.035-.264.104-.383.052-.091.116-.15.08-.113l1.441 1.386zm.374-.89v-1.777h-2v1.776h2zm-.757-.807a4.63 4.63 0 002.179-1.256l-1.43-1.4a2.63 2.63 0 01-1.236.716l.487 1.94zm2.282-1.38a5.24 5.24 0 00.938-2.688l-1.996-.124a3.24 3.24 0 01-.578 1.661l1.636 1.15z" fill="#00BC70" mask="url(#a)"/><path d="M119.708 118.58L131 135.115c-15.486 17.745-33.07 23.526-39.926 24.198l-8.066-17.745c16.777-9.034 31.457-19.089 36.7-22.988z" fill="#fff" stroke="#231F20" stroke-width="3" stroke-linecap="round" stroke-linejoin="round"/><path d="M78 78c5.6.4 13.667-1.833 17-3l.5 13.5H87a9 9 0 01-9-9V78z" fill="#F4F3F0"/><path d="M116.481 121l-2.45-4.514a20.687 20.687 0 01-.222-19.32v0a10.345 10.345 0 00-.41-10.175l-5.65-9.112c-2.147-3.463-6.549-4.74-10.387-3.373-5.558 1.98-12.534 3.776-17.624 3.136-.605-.076-1.166.379-1.166.988v0c0 5.804 4.705 10.51 10.51 10.51h8.445" stroke="#231F20" stroke-width="3" stroke-linecap="round"/><path d="M52.471 114.378a1.5 1.5 0 003 0h-3zm3-.84a1.5 1.5 0 10-3 0h3zm-3-12.5a1.5 1.5 0 103 0h-3zm3-1.212a1.5 1.5 0 00-3 0h3zm-3-12.5a1.5 1.5 0 003 0h-3zm3-.84a1.5 1.5 0 00-3 0h3zm-3-10.824a1.5 1.5 0 103 0h-3zm40.33-.234a1.5 1.5 0 003 0h-3zm3 13.712a1.5 1.5 0 00-3 0h3zm-40.136 35.588a1.5 1.5 0 00-2.895.79l2.895-.79zm5.306-70.384h26.33v-3H60.97v3zm26.33 74.432H60.97v3h26.33v-3zm-31.83-14.398v-.84h-3v.84h3zm0-13.34v-1.212h-3v1.212h3zm0-13.711v-.84h-3v.84h3zm0-11.665V59.844h-3v15.818h3zm37.33-15.818v15.584h3V59.844h-3zm0 29.296v34.136h3V89.14h-3zm-31.83 39.636a5.503 5.503 0 01-5.306-4.048l-2.895.79a8.504 8.504 0 008.201 6.258v-3zm26.33 3a8.5 8.5 0 008.5-8.5h-3a5.5 5.5 0 01-5.5 5.5v3zm0-77.432a5.5 5.5 0 015.5 5.5h3a8.5 8.5 0 00-8.5-8.5v3zm-26.33-3a8.5 8.5 0 00-8.5 8.5h3a5.5 5.5 0 015.5-5.5v-3z" fill="#231F20"/><rect x="45.099" y="75.428" width="12.905" height="11.292" rx="5.646" fill="#F4F3F0" stroke="#231F20" stroke-width="3" stroke-linecap="round"/><rect x="45.099" y="114.144" width="12.905" height="11.292" rx="5.646" fill="#F4F3F0" stroke="#231F20" stroke-width="3" stroke-linecap="round"/><rect x="40.259" y="86.72" width="17.745" height="13.712" rx="6.856" fill="#F4F3F0" stroke="#231F20" stroke-width="3" stroke-linecap="round"/><rect x="40.259" y="100.432" width="17.745" height="13.712" rx="6.856" fill="#F4F3F0" stroke="#231F20" stroke-width="3" stroke-linecap="round"/><path d="M64.457 52.844h19.358v1.646a4 4 0 01-4 4H68.457a4 4 0 01-4-4v-1.646z" stroke="#231F20" stroke-width="3" stroke-linecap="round"/><path d="M46.712 56.07H33M101.56 56.07h13.711M54.778 42.358l-7.26-9.679M93.494 42.358l7.259-9.679M74.136 35.905V23" stroke="#00BC70" stroke-width="3" stroke-linecap="round"/></svg>