<svg width="32" height="32" fill="none" xmlns="http://www.w3.org/2000/svg"><path d="M19.333 16c0-.92-.325-1.706-.976-2.357A3.212 3.212 0 0016 12.667c-.92 0-1.706.325-2.357.976A3.212 3.212 0 0012.667 16c0 .92.325 1.706.976 2.357a3.212 3.212 0 002.357.976c.92 0 1.706-.325 2.357-.976A3.212 3.212 0 0019.333 16zm1.797 0c0 1.424-.499 2.634-1.497 3.633-.998.998-2.21 1.497-3.633 1.497-1.424 0-2.634-.499-3.633-1.497-.998-.998-1.497-2.21-1.497-3.633 0-1.424.499-2.634 1.497-3.633.998-.998 2.21-1.497 3.633-1.497 1.424 0 2.634.499 3.633 1.497.998.998 1.497 2.21 1.497 3.633zm1.407-5.338c0 .33-.118.611-.352.846a1.154 1.154 0 01-.846.351c-.33 0-.612-.117-.847-.351a1.154 1.154 0 01-.351-.846c0-.33.117-.613.351-.847.235-.234.517-.351.846-.351.33 0 .613.117.847.351.234.235.352.517.352.847zM16 7.796l-.996-.007a70.642 70.642 0 00-1.374 0c-.312.005-.731.018-1.256.04-.526.021-.973.065-1.341.13-.37.065-.68.145-.931.24a3.378 3.378 0 00-1.146.756c-.33.33-.582.712-.755 1.146a5.218 5.218 0 00-.241.93c-.065.37-.109.816-.13 1.342-.022.525-.035.944-.04 1.256-.004.313-.004.77 0 1.374l.007.996-.007.996a70.642 70.642 0 000 1.374c.005.312.018.731.04 1.256.021.525.065.973.13 1.341.065.37.145.68.24.931.174.434.426.816.756 1.146.33.33.712.582 1.146.755.251.096.562.176.93.241.37.066.816.109 1.342.13.525.022.944.035 1.256.04.313.004.77.004 1.374 0l.996-.007.996.007a69.68 69.68 0 001.374 0 48.02 48.02 0 001.256-.04c.525-.021.973-.065 1.341-.13.37-.065.68-.145.931-.24a3.379 3.379 0 001.146-.756c.33-.33.582-.712.755-1.146.096-.251.176-.562.241-.93.066-.37.109-.817.13-1.342.022-.525.035-.944.04-1.256.004-.313.004-.77 0-1.374L24.203 16l.007-.996a69.68 69.68 0 000-1.374 48.02 48.02 0 00-.04-1.256 10.318 10.318 0 00-.13-1.341 5.217 5.217 0 00-.24-.931 3.379 3.379 0 00-.756-1.146 3.378 3.378 0 00-1.146-.755 5.218 5.218 0 00-.93-.241 10.316 10.316 0 00-1.342-.13 48.252 48.252 0 00-1.256-.04c-.313-.004-.77-.004-1.374 0L16 7.797zM26 16c0 1.988-.022 3.364-.065 4.128-.087 1.805-.625 3.203-1.615 4.192-.99.99-2.387 1.528-4.192 1.615-.764.043-2.14.065-4.128.065s-3.364-.022-4.128-.065c-1.805-.087-3.203-.625-4.192-1.615-.99-.99-1.528-2.387-1.615-4.192C6.022 19.364 6 17.988 6 16s.022-3.364.065-4.128c.087-1.805.625-3.203 1.615-4.192.99-.99 2.387-1.528 4.192-1.615C12.636 6.022 14.012 6 16 6s3.364.022 4.128.065c1.805.087 3.203.625 4.192 1.615.99.99 1.528 2.387 1.615 4.192.043.764.065 2.14.065 4.128z" fill="#fff"/></svg>