<svg data-name="Layer 1" xmlns="http://www.w3.org/2000/svg" viewBox="0 0 1001 690"><path d="M126.1 187.3v-59.96a16.36 16.36 0 1132.72 0v59.97a16.36 16.36 0 11-32.72 0zm-41.03 30.56a16.36 16.36 0 1023.13-23.14l-42.4-42.4a16.36 16.36 0 10-23.14 23.14zm8.95 34.26a16.36 16.36 0 00-16.37-16.36H17.67a16.36 16.36 0 100 32.72h59.98a16.36 16.36 0 0016.36-16.36zm189.59 0a16.36 16.36 0 00-16.36-16.36h-59.98a16.36 16.36 0 100 32.72h59.98a16.36 16.36 0 0016.36-16.36zm-49.64 54.1H50.95c-6.8 0-10.64 3.84-10.64 10.65v44.26c0 6.8 3.84 10.64 10.64 10.64h57.46v221.75c0 6.81 3.84 10.64 10.64 10.64h46.82c6.8 0 10.64-3.83 10.64-10.64V371.76h57.46c6.8 0 10.64-3.83 10.64-10.64v-44.26c0-6.8-3.84-10.64-10.64-10.64zm91.54 85.13h-42.55c-6.82 0-10.65 3.83-10.65 10.64v191.53c0 6.81 3.83 10.64 10.65 10.64h42.55c6.82 0 10.64-3.83 10.64-10.64V402c0-6.81-3.82-10.64-10.64-10.64zm0-85.13h-42.55c-6.82 0-10.65 3.84-10.65 10.65v38.3c0 6.81 3.83 10.64 10.65 10.64h42.55c6.82 0 10.64-3.83 10.64-10.64v-38.3c0-6.81-3.82-10.65-10.64-10.65zm282.2 191.53c0 63.42-45.97 112.37-101.72 112.37-28.48 0-49.19-9.62-63.4-25.84v94.36c0 6.81-3.85 10.65-10.67 10.65h-42.55c-6.81 0-10.63-3.84-10.63-10.65V402c0-6.81 3.82-10.64 10.64-10.64h42.55c6.82 0 10.65 3.83 10.65 10.64v9.23C456.8 395 477.51 385.38 506 385.38c55.75 0 101.72 48.95 101.72 112.37zm-63.84 0c0-31.92-21.28-51.92-50.65-51.92s-50.66 20-50.66 51.92 21.3 51.93 50.66 51.93 50.65-20 50.65-51.93zm262.2-191.53h-54.48c-5.97 0-9.79 2.56-12.35 7.66l-48.51 92.92-48.52-92.92c-2.56-5.11-6.4-7.67-12.35-7.67h-54.48c-8.09 0-11.49 5.11-7.23 12.78l88.52 154.74v119.8c0 6.8 3.83 10.63 10.65 10.63h46.8c6.83 0 10.65-3.83 10.65-10.64V473.73L813.3 319c4.25-7.66.85-12.77-7.24-12.77zm-623.03-89.81a16.33 16.33 0 0022.56-5.11C275.5 100.45 395.34 34.28 526.2 34.28c137.01 0 260.91 72.46 328.43 190.32l-55.84-10.63 116.73 131.52 8.76-175.62-37.82 44.3C813.91 82.62 677.33 1.56 526.2 1.56c-142.17 0-272.36 71.88-348.27 192.29a16.34 16.34 0 005.11 22.56zm816.27 281.34c0 63.42-50.2 112.36-112.78 112.36s-112.8-48.94-112.8-112.36 50.23-112.37 112.8-112.37 112.78 48.95 112.78 112.37zm-77.24 17.4q0-8.86-3.42-14.8a19.42 19.42 0 00-8.45-8.28 76.84 76.84 0 00-11.04-4.1 84.68 84.68 0 00-11.04-2.52 20.77 20.77 0 01-8.45-3 7.12 7.12 0 01-3.43-6.28 6.45 6.45 0 012.84-5.44 10 10 0 016.02-2.09 20.26 20.26 0 015.19.59 11.45 11.45 0 013.18 1.25 22.79 22.79 0 012.17 1.68q1.17 1 1.5 1.33 3.86 2.68 6.87 2.68 4.68 0 9.2-6.69 3.34-5.02 3.34-7.7 0-2.34-4.18-6.2l-.67-.5-1.5-1.33a32.55 32.55 0 00-5.36-3.01 38.49 38.49 0 00-8.53-2.85v-9.36a45.16 45.16 0 00-.34-6.36 6.86 6.86 0 00-2.59-4.1q-2.26-1.92-6.77-1.92a16.16 16.16 0 00-5.7.84 5.06 5.06 0 00-3 2.84 12.94 12.94 0 00-1 3.6q-.18 1.6-.17 4.93v9.37q-11.21 2.35-17.57 10.38a28.11 28.11 0 00-6.36 17.9q0 10.2 4.69 16.73a25.67 25.67 0 0011.37 9.2 95.63 95.63 0 0013.39 4.26 70.83 70.83 0 0111.37 3.6q4.69 2.01 4.69 5.69 0 10.2-12.38 10.2-6.52 0-11.71-6.35l-.84-.84q-5.86-5.85-9.87-5.85-3.52 0-6.86 3.18-5.7 5.52-5.69 9.7 0 2.5 3.52 7.02l2.17 2.84a33.1 33.1 0 007.7 6.2 38.02 38.02 0 0012.38 5.01v10.37q0 3.35.17 4.94a13.97 13.97 0 001 3.68 5.04 5.04 0 002.93 2.93 19.2 19.2 0 0011.2 0 5.4 5.4 0 003.02-2.85 11.92 11.92 0 001.09-3.68q.16-1.67.16-4.85v-10.7a36.13 36.13 0 0018.24-10.38q7.52-7.86 7.52-20.9z" fill="#fff"/></svg>