<svg version="1" xmlns="http://www.w3.org/2000/svg" width="693.333" height="693.333" viewBox="0 0 520.000000 520.000000"><path d="M258.8.4c-.1.2-6.1.6-13.3 1-7.1.3-13.9.8-15 1-1.1.2-4.7.7-8 1.1-7.3.8-12.2 1.7-24 4.5-67.7 15.8-126 58.1-161.8 117.5-5.4 9.1-15.1 28-17.5 34.5-6 15.8-13 39.2-14.5 48.5-.3 1.6-.8 4.6-1.1 6.5-1.2 6.8-1.6 9.6-2.3 16.5-1 9.1-1 50.2 0 58 1.4 10.3 1.8 12.9 2.3 15.5.2 1.4.7 3.8 1 5.4.2 1.5 1.2 5.8 2 9.5.9 3.6 1.7 7 1.8 7.6 3.9 16.9 16.5 47.6 26.2 63.8 4.7 7.8 12.5 19.8 13.9 21.4.5.6 3.3 4.1 6 7.8 6.7 8.9 30 32.7 40 40.7 33 26.5 71 44.3 112 52.6 11.1 2.3 16.2 3 33.5 4.7 5.9.6 33.1.6 39.5 0 15-1.4 21.9-2.3 33.5-4.6 41.5-8.3 81.3-27.1 114-53.8 5.3-4.4 26.4-25.1 32.6-32.1 14-15.9 31.6-44.8 40.8-67.2 6.3-15.5 13.4-39.2 15.1-50.8.4-2.5.8-4.7 1-5 .1-.3.6-3.2 1-6.5s1-9.2 1.5-13c.9-7.2.6-51.1-.4-55.5-.3-1.4-.7-4.8-1.1-7.5-1.8-16.2-7.5-38-15.3-58.5C470 79.7 391.1 17 301 4c-4.1-.6-8.8-1.3-10.5-1.5-1.6-.3-8.8-.8-16-1.1-7.1-.3-13.5-.7-14.2-.9-.6-.2-1.3-.2-1.5-.1zm13.5 97.1c4.5 2.1 8.2 6.7 9.2 11.5.5 1.9.9 10.5 1 19 .3 19.4.1 18 2.4 18 2.9 0 15.8 4.8 22.5 8.4 6.7 3.6 16.5 12.2 19.7 17.2 1.5 2.4 2 4.5 1.7 7.2-.7 5.2-6.3 15.4-12.6 22.2-10.6 11.8-21 11.8-35.1.1-6.1-5.1-9.5-6.7-16.1-7.6-8.2-1.2-13-.7-18.5 2.1-6.9 3.4-9.6 7.2-10 13.7-.4 6.9 2.2 11.9 8.2 15.7 6.2 3.9 12 5.8 23.3 7.6 6.9 1 20.7 4.7 30.5 8.1 24.8 8.6 34.2 17.5 40.6 38.3 1.8 6 2.3 9.9 2.3 19.5 0 6.6-.3 14.2-.7 16.8-1.1 6.7-4.8 16.7-8.8 23.3-3.3 5.5-16.7 19.1-21.3 21.6-10 5.5-14 7.5-20.6 9.8l-7.4 2.6-.1 18c-.2 22.9-1.7 28.4-9.3 32-4.8 2.3-17.6 2.8-23.8.9-9.9-3-11.6-7.7-11.8-32.7l-.2-17.9-9.7-3.3c-18.7-6.4-34-18-44.1-33.4-8.1-12.3-6.9-19 6.2-32.5 8.6-9 16.7-11.1 25.8-6.6 2.6 1.2 8.9 6.3 14.1 11.3 11.3 10.8 14.3 12.9 20.9 14.9 9.4 2.7 24.6.2 29.8-5 6.5-6.5 9-18.5 5-24.1-1.8-2.5-16.3-10.6-17.3-9.7-.2.3-.9.1-1.5-.4s-7.6-2.5-15.5-4.6c-16.3-4.1-30.8-9.2-38.5-13.2-2.8-1.6-8.3-6-12.2-9.9-5.6-5.5-8.1-9-11.2-15.5-2.2-4.6-4.3-10.2-4.8-12.4-.4-2.2-.9-4.7-1.1-5.5-.5-2.4-.6-20.2-.1-23.5 2.5-14.6 9.8-27.7 21.2-38.2 7.4-6.8 22-14.6 29.3-15.6 1.2-.2 2.6-.6 3-1 .4-.4.8-8.1.9-17 .1-10.1.6-17.8 1.5-20.6 1.7-5.6 5.9-9.7 11.2-11 6.2-1.5 17.5-.8 22 1.4z"/></svg>