<svg width="147" height="170" viewBox="0 0 147 170" fill="none" xmlns="http://www.w3.org/2000/svg">
<circle cx="73.5" cy="73.5" r="73.5" fill="#F4F3F0"/>
<path d="M92.943 53.0253H55.2973C52.062 56.6559 49.9457 61.1448 49.2035 65.9508C48.4614 70.7569 49.125 75.675 51.1144 80.1125C53.1038 84.5499 56.3341 88.3173 60.416 90.9607C64.4979 93.604 69.2571 95.0104 74.1201 95.0104C78.9832 95.0104 83.7424 93.604 87.8243 90.9607C91.9061 88.3173 95.1365 84.5499 97.1259 80.1125C99.1153 75.675 99.7789 70.7569 99.0367 65.9508C98.2946 61.1448 96.1783 56.6559 92.943 53.0253Z" fill="white" stroke="#231F20" stroke-width="3" stroke-miterlimit="10"/>
<path d="M50.4629 60.9691C50.4629 60.9691 71.1849 76.8569 93.2903 53.0253" stroke="#231F20" stroke-width="3" stroke-miterlimit="10"/>
<path d="M63.4141 92.5698V98.6146" stroke="#231F20" stroke-width="3" stroke-miterlimit="10" stroke-linecap="round"/>
<path d="M84.8276 92.5698V98.6146" stroke="#231F20" stroke-width="3" stroke-miterlimit="10" stroke-linecap="round"/>
<path d="M82.0654 156.466L102.96 146.282C103.436 146.04 103.835 145.668 104.11 145.21C104.385 144.752 104.525 144.226 104.515 143.692V115.538C104.489 115.012 104.334 114.5 104.063 114.048C103.791 113.596 103.413 113.218 102.96 112.947L90.8724 106.731H82.7556" fill="white"/>
<path d="M82.0654 156.466L102.96 146.282C103.436 146.04 103.835 145.668 104.11 145.21C104.385 144.752 104.525 144.226 104.515 143.692V115.538C104.489 115.012 104.334 114.5 104.063 114.048C103.791 113.596 103.413 113.218 102.96 112.947L90.8724 106.731H82.7556" stroke="#00BC70" stroke-width="3" stroke-miterlimit="10"/>
<path d="M65.4925 106.731H57.198L45.11 112.947C44.6339 113.19 44.2357 113.561 43.9608 114.019C43.6858 114.478 43.5453 115.004 43.5552 115.538V143.687C43.5803 144.214 43.7355 144.727 44.0067 145.18C44.278 145.633 44.657 146.011 45.11 146.282L65.8336 156.298" fill="white"/>
<path d="M65.4925 106.731H57.198L45.11 112.947C44.6339 113.19 44.2357 113.561 43.9608 114.019C43.6858 114.478 43.5453 115.004 43.5552 115.538V143.687C43.5803 144.214 43.7355 144.727 44.0067 145.18C44.278 145.633 44.657 146.011 45.11 146.282L65.8336 156.298" stroke="#00BC70" stroke-width="3" stroke-miterlimit="10"/>
<path d="M78.9562 102.932H69.2861L65.4863 106.731V111.394L69.9699 115.878H78.2596L82.7432 111.394V106.731L78.9562 102.932Z" fill="white" stroke="#231F20" stroke-width="3" stroke-miterlimit="10" stroke-linejoin="round"/>
<path d="M82.2385 159.056L79.4747 114.675L78.2658 115.884H69.976L68.7671 114.675L66.0049 159.056L74.1217 167L82.2385 159.056Z" fill="white" stroke="#231F20" stroke-width="3" stroke-miterlimit="10"/>
<path d="M90.5264 123.482H94.1532" stroke="#231F20" stroke-width="3" stroke-miterlimit="10" stroke-linecap="round"/>
<path d="M93.2907 53.0249H54.7803V39.5551C54.8179 39.1256 55.0169 38.7264 55.3373 38.4378C55.6576 38.1493 56.0754 37.9929 56.5064 38.0002H91.7343C91.9387 37.9994 92.1413 38.039 92.3303 38.1169C92.5193 38.1947 92.6911 38.3092 92.8356 38.4538C92.9802 38.5983 93.0946 38.77 93.1725 38.9591C93.2503 39.1481 93.29 39.3507 93.2891 39.5551L93.2907 53.0249Z" fill="white" stroke="#00BC70" stroke-width="3" stroke-miterlimit="10"/>
</svg>
