<svg width="62" height="33" viewBox="0 0 62 33" fill="none" xmlns="http://www.w3.org/2000/svg">
<rect x="1.70703" y="2.26105" width="58.5852" height="28.4789" fill="white" stroke="#00BC70" stroke-width="3" stroke-miterlimit="10" stroke-linejoin="round"/>
<path fill-rule="evenodd" clip-rule="evenodd" d="M1.70703 12.014C5.78719 11.8026 9.03043 8.4273 9.03043 4.29453C9.03043 3.59078 8.93638 2.90899 8.76017 2.26105L52.4259 2.26105C52.2496 2.90904 52.1556 3.59089 52.1556 4.29471C52.1556 8.56387 55.6164 12.0247 59.8856 12.0247C60.022 12.0247 60.1576 12.0212 60.2923 12.0142V20.1719C60.1576 20.1649 60.0219 20.1614 59.8855 20.1614C55.6163 20.1614 52.1555 23.6222 52.1555 27.8914C52.1555 28.8974 52.3477 29.8585 52.6973 30.74H8.48859C8.83817 29.8585 9.03031 28.8975 9.03031 27.8916C9.03031 23.7589 5.78713 20.3836 1.70703 20.1721L1.70703 12.014Z" fill="white"/>
<path d="M1.70703 12.014L1.6294 10.516C0.832215 10.5573 0.207031 11.2158 0.207031 12.014H1.70703ZM8.76017 2.26105V0.761047C8.29286 0.761047 7.85224 0.978848 7.56844 1.35013C7.28465 1.72141 7.19011 2.20374 7.31274 2.65468L8.76017 2.26105ZM52.4259 2.26105L53.8733 2.65472C53.9959 2.20377 53.9014 1.72143 53.6176 1.35014C53.3338 0.978855 52.8932 0.761047 52.4259 0.761047V2.26105ZM60.2923 12.0142H61.7923C61.7923 11.6029 61.6234 11.2096 61.3251 10.9264C61.0268 10.6432 60.6254 10.4949 60.2146 10.5162L60.2923 12.0142ZM60.2923 20.1719L60.2146 21.6699C60.6254 21.6912 61.0268 21.5429 61.3251 21.2597C61.6234 20.9765 61.7923 20.5832 61.7923 20.1719H60.2923ZM52.6973 30.74V32.24C53.1943 32.24 53.659 31.9938 53.9382 31.5827C54.2174 31.1716 54.2749 30.6489 54.0916 30.187L52.6973 30.74ZM8.48859 30.74L7.09425 30.187C6.91104 30.6489 6.96852 31.1716 7.24773 31.5827C7.52694 31.9938 7.99164 32.24 8.48859 32.24V30.74ZM1.70703 20.1721H0.207031C0.207031 20.9704 0.832201 21.6288 1.62938 21.6701L1.70703 20.1721ZM7.53043 4.29453C7.53043 7.62488 4.91654 10.3457 1.6294 10.516L1.78466 13.512C6.65783 13.2595 10.5304 9.22972 10.5304 4.29453H7.53043ZM7.31274 2.65468C7.45438 3.1755 7.53043 3.72495 7.53043 4.29453H10.5304C10.5304 3.4566 10.4184 2.64248 10.2076 1.86742L7.31274 2.65468ZM52.4259 0.761047L8.76017 0.761047V3.76105L52.4259 3.76105V0.761047ZM53.6556 4.29471C53.6556 3.72508 53.7316 3.17558 53.8733 2.65472L50.9784 1.86738C50.7676 2.6425 50.6556 3.4567 50.6556 4.29471H53.6556ZM59.8856 10.5247C56.4448 10.5247 53.6556 7.73544 53.6556 4.29471H50.6556C50.6556 9.3923 54.788 13.5247 59.8856 13.5247V10.5247ZM60.2146 10.5162C60.1058 10.5218 59.9961 10.5247 59.8856 10.5247V13.5247C60.0479 13.5247 60.2094 13.5205 60.3699 13.5122L60.2146 10.5162ZM61.7923 20.1719V12.0142H58.7923V20.1719H61.7923ZM59.8855 21.6614C59.996 21.6614 60.1058 21.6643 60.2146 21.6699L60.3699 18.6739C60.2094 18.6656 60.0479 18.6614 59.8855 18.6614V21.6614ZM53.6555 27.8914C53.6555 24.4507 56.4448 21.6614 59.8855 21.6614V18.6614C54.7879 18.6614 50.6555 22.7938 50.6555 27.8914H53.6555ZM54.0916 30.187C53.8107 29.4786 53.6555 28.7049 53.6555 27.8914H50.6555C50.6555 29.0898 50.8847 30.2384 51.303 31.293L54.0916 30.187ZM8.48859 32.24H52.6973V29.24H8.48859V32.24ZM7.53031 27.8916C7.53031 28.7051 7.37517 29.4786 7.09425 30.187L9.88294 31.293C10.3012 30.2384 10.5303 29.0899 10.5303 27.8916H7.53031ZM1.62938 21.6701C4.91647 21.8405 7.53031 24.5613 7.53031 27.8916H10.5303C10.5303 22.9564 6.65779 18.9267 1.78468 18.6741L1.62938 21.6701ZM0.207031 12.014L0.207031 20.1721H3.20703L3.20703 12.014H0.207031Z" fill="#00BC70"/>
<ellipse cx="30.9997" cy="16.5001" rx="12.2053" ry="14.2395" fill="white" stroke="#00BC70" stroke-width="3" stroke-miterlimit="10" stroke-linejoin="round"/>
</svg>
