<svg width="147" height="170" viewBox="0 0 147 170" fill="none" xmlns="http://www.w3.org/2000/svg">
<circle cx="73.5" cy="73.5" r="73.5" fill="#F4F3F0"/>
<rect x="54" y="53" width="40" height="77" rx="7" fill="white"/>
<path d="M68.0864 130.679V130.679C70.0415 135.322 74.5888 138.342 79.6268 138.342H89.0576" stroke="#231F20" stroke-width="3" stroke-linecap="round"/>
<mask id="path-4-inside-1" fill="white">
<path fill-rule="evenodd" clip-rule="evenodd" d="M83.1456 97.7576C84.3543 95.8761 84.9994 93.6641 84.9994 91.4013C85.0145 89.8945 84.7402 88.3998 84.1928 87.0046C83.6453 85.6095 82.8357 84.342 81.8112 83.2765C80.7868 82.2109 79.5682 81.3688 78.2269 80.7994C76.8855 80.23 75.4484 79.9447 73.9997 79.9604C71.8242 79.9604 69.6975 80.6314 67.8886 81.8885C66.0797 83.1457 64.6698 84.9325 63.8373 87.0231C63.0048 89.1136 62.7869 91.414 63.2114 93.6333C63.6358 95.8527 64.6834 97.8913 66.2217 99.4913C67.7601 101.091 69.72 102.181 71.8538 102.622C73.9875 103.064 76.1992 102.837 78.2091 101.971C80.2191 101.105 81.937 99.639 83.1456 97.7576ZM77.413 93.1761C77.3999 92.6276 77.2702 92.089 77.0332 91.5989C76.9006 91.3231 76.6756 91.1436 76.4877 90.9938C76.4064 90.9289 76.3321 90.8697 76.2753 90.8105C75.9293 90.5916 75.5405 90.4566 75.1375 90.4154C74.7792 90.2546 74.3888 90.1868 73.9997 90.2179C73.8531 90.2149 73.7089 90.1779 73.5778 90.1095C73.4466 90.0412 73.3318 89.9432 73.2418 89.8228C73.0519 89.6253 72.8619 89.4277 72.8619 89.2302C72.8472 89.1231 72.8567 89.0139 72.8896 88.9113C72.9225 88.8087 72.9779 88.7155 73.0515 88.639C73.125 88.5625 73.2146 88.5049 73.3133 88.4707C73.4119 88.4364 73.5169 88.4266 73.6199 88.4419H74.1896C74.3796 88.4419 74.3796 88.4419 74.5695 88.6394L74.5695 88.6394L74.7594 88.8369L74.9493 89.0345C75.1717 89.1912 75.4401 89.2611 75.7073 89.232C76.0871 89.232 76.277 89.0345 76.6551 88.6394C76.728 88.4879 76.8008 88.3654 76.8629 88.2609C76.9628 88.0931 77.035 87.9717 77.035 87.8511C77.035 87.6554 76.845 87.456 76.6551 87.2584L76.0853 86.8634C75.9904 86.8634 75.9429 86.814 75.8717 86.7399C75.8005 86.6658 75.7055 86.5671 75.5156 86.4683C75.2932 86.3116 75.0248 86.2416 74.7576 86.2707V84.6941C74.7576 84.5953 74.7102 84.5459 74.6627 84.4965C74.6152 84.4471 74.5677 84.3978 74.5677 84.299C74.3778 84.1014 74.1879 84.1014 73.8098 84.1014H73.24C73.1451 84.1014 73.0976 84.1508 73.0501 84.2002C73.0026 84.2496 72.9551 84.299 72.8602 84.299V84.299C72.8602 84.4965 72.8602 84.4965 72.6703 84.6941V86.2726C72.0258 86.4346 71.4357 86.7753 70.9627 87.2584C70.6058 87.7776 70.4072 88.3964 70.3929 89.0345C70.4074 89.6466 70.5364 90.2498 70.7728 90.8105C71.1032 91.1958 71.4866 91.528 71.9106 91.7964C72.3237 92.0181 72.7749 92.1524 73.2383 92.1915C73.4282 92.2903 73.6177 92.3396 73.8071 92.389C73.9966 92.4384 74.1861 92.4878 74.376 92.5866C74.7559 92.7841 74.7559 92.9817 74.7559 93.1792C74.7559 93.9675 74.376 94.1651 73.6181 94.1651C73.4 94.1502 73.1871 94.0901 72.9917 93.9883C72.7963 93.8865 72.6224 93.7451 72.4803 93.5725C72.1005 92.9798 71.9106 92.7841 71.5325 92.7841C71.4148 92.7841 71.2971 92.86 71.1347 92.9647C71.0349 93.0289 70.9184 93.1041 70.7745 93.1792C70.4861 93.4342 70.286 93.7805 70.2048 94.1651C70.2048 94.2875 70.2777 94.4099 70.3783 94.5788C70.4401 94.6826 70.5124 94.8038 70.5846 94.9534L70.7745 95.151C70.9904 95.3948 71.2473 95.5957 71.5325 95.7436L72.6703 96.3362V97.9147C72.6703 98.1122 72.6702 98.1122 72.8602 98.3098C72.8602 98.4319 72.9327 98.4785 73.033 98.543C73.0949 98.5828 73.1675 98.6294 73.24 98.7049H74.3778C74.4728 98.7049 74.5202 98.6555 74.5677 98.6061C74.6152 98.5567 74.6627 98.5073 74.7576 98.5073C74.7576 98.4086 74.8051 98.3592 74.8526 98.3098C74.9001 98.2604 74.9476 98.211 74.9476 98.1122V96.3362C75.592 96.1742 76.1821 95.8335 76.6551 95.3503C77.1014 94.7153 77.3643 93.961 77.413 93.1761Z"/>
</mask>
<path fill-rule="evenodd" clip-rule="evenodd" d="M83.1456 97.7576C84.3543 95.8761 84.9994 93.6641 84.9994 91.4013C85.0145 89.8945 84.7402 88.3998 84.1928 87.0046C83.6453 85.6095 82.8357 84.342 81.8112 83.2765C80.7868 82.2109 79.5682 81.3688 78.2269 80.7994C76.8855 80.23 75.4484 79.9447 73.9997 79.9604C71.8242 79.9604 69.6975 80.6314 67.8886 81.8885C66.0797 83.1457 64.6698 84.9325 63.8373 87.0231C63.0048 89.1136 62.7869 91.414 63.2114 93.6333C63.6358 95.8527 64.6834 97.8913 66.2217 99.4913C67.7601 101.091 69.72 102.181 71.8538 102.622C73.9875 103.064 76.1992 102.837 78.2091 101.971C80.2191 101.105 81.937 99.639 83.1456 97.7576ZM77.413 93.1761C77.3999 92.6276 77.2702 92.089 77.0332 91.5989C76.9006 91.3231 76.6756 91.1436 76.4877 90.9938C76.4064 90.9289 76.3321 90.8697 76.2753 90.8105C75.9293 90.5916 75.5405 90.4566 75.1375 90.4154C74.7792 90.2546 74.3888 90.1868 73.9997 90.2179C73.8531 90.2149 73.7089 90.1779 73.5778 90.1095C73.4466 90.0412 73.3318 89.9432 73.2418 89.8228C73.0519 89.6253 72.8619 89.4277 72.8619 89.2302C72.8472 89.1231 72.8567 89.0139 72.8896 88.9113C72.9225 88.8087 72.9779 88.7155 73.0515 88.639C73.125 88.5625 73.2146 88.5049 73.3133 88.4707C73.4119 88.4364 73.5169 88.4266 73.6199 88.4419H74.1896C74.3796 88.4419 74.3796 88.4419 74.5695 88.6394L74.5695 88.6394L74.7594 88.8369L74.9493 89.0345C75.1717 89.1912 75.4401 89.2611 75.7073 89.232C76.0871 89.232 76.277 89.0345 76.6551 88.6394C76.728 88.4879 76.8008 88.3654 76.8629 88.2609C76.9628 88.0931 77.035 87.9717 77.035 87.8511C77.035 87.6554 76.845 87.456 76.6551 87.2584L76.0853 86.8634C75.9904 86.8634 75.9429 86.814 75.8717 86.7399C75.8005 86.6658 75.7055 86.5671 75.5156 86.4683C75.2932 86.3116 75.0248 86.2416 74.7576 86.2707V84.6941C74.7576 84.5953 74.7102 84.5459 74.6627 84.4965C74.6152 84.4471 74.5677 84.3978 74.5677 84.299C74.3778 84.1014 74.1879 84.1014 73.8098 84.1014H73.24C73.1451 84.1014 73.0976 84.1508 73.0501 84.2002C73.0026 84.2496 72.9551 84.299 72.8602 84.299V84.299C72.8602 84.4965 72.8602 84.4965 72.6703 84.6941V86.2726C72.0258 86.4346 71.4357 86.7753 70.9627 87.2584C70.6058 87.7776 70.4072 88.3964 70.3929 89.0345C70.4074 89.6466 70.5364 90.2498 70.7728 90.8105C71.1032 91.1958 71.4866 91.528 71.9106 91.7964C72.3237 92.0181 72.7749 92.1524 73.2383 92.1915C73.4282 92.2903 73.6177 92.3396 73.8071 92.389C73.9966 92.4384 74.1861 92.4878 74.376 92.5866C74.7559 92.7841 74.7559 92.9817 74.7559 93.1792C74.7559 93.9675 74.376 94.1651 73.6181 94.1651C73.4 94.1502 73.1871 94.0901 72.9917 93.9883C72.7963 93.8865 72.6224 93.7451 72.4803 93.5725C72.1005 92.9798 71.9106 92.7841 71.5325 92.7841C71.4148 92.7841 71.2971 92.86 71.1347 92.9647C71.0349 93.0289 70.9184 93.1041 70.7745 93.1792C70.4861 93.4342 70.286 93.7805 70.2048 94.1651C70.2048 94.2875 70.2777 94.4099 70.3783 94.5788C70.4401 94.6826 70.5124 94.8038 70.5846 94.9534L70.7745 95.151C70.9904 95.3948 71.2473 95.5957 71.5325 95.7436L72.6703 96.3362V97.9147C72.6703 98.1122 72.6702 98.1122 72.8602 98.3098C72.8602 98.4319 72.9327 98.4785 73.033 98.543C73.0949 98.5828 73.1675 98.6294 73.24 98.7049H74.3778C74.4728 98.7049 74.5202 98.6555 74.5677 98.6061C74.6152 98.5567 74.6627 98.5073 74.7576 98.5073C74.7576 98.4086 74.8051 98.3592 74.8526 98.3098C74.9001 98.2604 74.9476 98.211 74.9476 98.1122V96.3362C75.592 96.1742 76.1821 95.8335 76.6551 95.3503C77.1014 94.7153 77.3643 93.961 77.413 93.1761Z" fill="#00BC70"/>
<path d="M84.9994 91.4013L83.9994 91.3913V91.4013H84.9994ZM84.1928 87.0046L83.2619 87.3699L83.2619 87.3699L84.1928 87.0046ZM81.8112 83.2765L82.5321 82.5834L82.5321 82.5834L81.8112 83.2765ZM78.2269 80.7994L78.6176 79.8789L78.6176 79.8789L78.2269 80.7994ZM73.9997 79.9604L73.9997 80.9604L74.0105 80.9603L73.9997 79.9604ZM67.8886 81.8885L68.4593 82.7097L68.4593 82.7097L67.8886 81.8885ZM63.8373 87.0231L62.9083 86.6531L62.9083 86.6531L63.8373 87.0231ZM66.2217 99.4913L66.9426 98.7982L66.9426 98.7982L66.2217 99.4913ZM71.8538 102.622L72.0564 101.643L72.0564 101.643L71.8538 102.622ZM78.2091 101.971L77.8134 101.053L77.8134 101.053L78.2091 101.971ZM77.413 93.1761L78.4111 93.238L78.4138 93.1951L78.4127 93.1521L77.413 93.1761ZM77.0332 91.5989L76.1319 92.0321L76.1329 92.0341L77.0332 91.5989ZM76.4877 90.9938L75.8642 91.7756L75.8642 91.7756L76.4877 90.9938ZM76.2753 90.8105L76.9961 90.1175L76.9123 90.0302L76.81 89.9655L76.2753 90.8105ZM75.1375 90.4154L74.7279 91.3277L74.8752 91.3939L75.0359 91.4103L75.1375 90.4154ZM73.9997 90.2179L73.9793 91.2177L74.0294 91.2187L74.0794 91.2147L73.9997 90.2179ZM73.2418 89.8228L74.0425 89.2238L74.0055 89.1743L73.9626 89.1298L73.2418 89.8228ZM72.8619 89.2302H73.8619V89.1619L73.8527 89.0943L72.8619 89.2302ZM72.8896 88.9113L71.9373 88.6061L71.9373 88.6061L72.8896 88.9113ZM73.0515 88.639L72.3306 87.9459L72.3306 87.9459L73.0515 88.639ZM73.6199 88.4419L73.4731 89.431L73.5461 89.4419H73.6199V88.4419ZM74.5695 88.6394L73.8486 89.3325L73.8554 89.3396L73.8624 89.3465L74.5695 88.6394ZM74.5695 88.6394L75.2903 87.9463L75.2835 87.9392L75.2766 87.9323L74.5695 88.6394ZM74.7594 88.8369L75.4803 88.1439L75.4803 88.1439L74.7594 88.8369ZM74.9493 89.0345L74.2284 89.7275L74.2949 89.7967L74.3733 89.8519L74.9493 89.0345ZM75.7073 89.232V88.232H75.6529L75.5989 88.2379L75.7073 89.232ZM76.6551 88.6394L77.3776 89.3308L77.4875 89.2159L77.5564 89.0727L76.6551 88.6394ZM76.8629 88.2609L76.0035 87.7497L76.0035 87.7497L76.8629 88.2609ZM76.6551 87.2584L77.376 86.5654L77.3069 86.4935L77.2249 86.4367L76.6551 87.2584ZM76.0853 86.8634L76.6552 86.0416L76.3981 85.8634H76.0853V86.8634ZM75.8717 86.7399L76.5926 86.0468L76.5926 86.0468L75.8717 86.7399ZM75.5156 86.4683L74.9396 87.2857L74.9945 87.3245L75.0542 87.3555L75.5156 86.4683ZM74.7576 86.2707H73.7576V87.3857L74.866 87.2649L74.7576 86.2707ZM74.5677 84.299H75.5677V83.8962L75.2886 83.6059L74.5677 84.299ZM72.8602 84.299V83.299H71.8602V84.299H72.8602ZM72.6703 84.6941L71.9494 84.001L71.6703 84.2913V84.6941H72.6703ZM72.6703 86.2726L72.9141 87.2424L73.6703 87.0523V86.2726H72.6703ZM70.9627 87.2584L70.2481 86.5589L70.1877 86.6207L70.1387 86.6919L70.9627 87.2584ZM70.3929 89.0345L69.3932 89.0121L69.3927 89.0351L69.3932 89.0581L70.3929 89.0345ZM70.7728 90.8105L69.8513 91.199L69.912 91.3429L70.0137 91.4615L70.7728 90.8105ZM71.9106 91.7964L71.3756 92.6413L71.4061 92.6606L71.4378 92.6776L71.9106 91.7964ZM73.2383 92.1915L73.6997 91.3043L73.522 91.2119L73.3224 91.195L73.2383 92.1915ZM73.8071 92.389L74.0594 91.4214L74.0594 91.4214L73.8071 92.389ZM74.376 92.5866L73.9146 93.4738L73.9146 93.4738L74.376 92.5866ZM73.6181 94.1651L73.5499 95.1628L73.584 95.1651H73.6181V94.1651ZM72.9917 93.9883L72.5297 94.8752L72.5297 94.8752L72.9917 93.9883ZM72.4803 93.5725L71.6384 94.1121L71.6704 94.162L71.7081 94.2078L72.4803 93.5725ZM71.1347 92.9647L70.5929 92.1241L70.5929 92.1241L71.1347 92.9647ZM70.7745 93.1792L70.3115 92.2929L70.2034 92.3493L70.1121 92.4301L70.7745 93.1792ZM70.2048 94.1651L69.2264 93.9584L69.2048 94.0606V94.1651H70.2048ZM70.3783 94.5788L69.5192 95.0906L69.5192 95.0906L70.3783 94.5788ZM70.5846 94.9534L69.6841 95.3883L69.7534 95.5317L69.8637 95.6465L70.5846 94.9534ZM70.7745 95.151L71.5233 94.4882L71.5097 94.4727L71.4954 94.4579L70.7745 95.151ZM71.5325 95.7436L71.9944 94.8567L71.9929 94.8559L71.5325 95.7436ZM72.6703 96.3362H73.6703V95.7296L73.1322 95.4493L72.6703 96.3362ZM72.8602 98.3098H73.8602V97.907L73.581 97.6167L72.8602 98.3098ZM73.033 98.543L73.5737 97.7018L73.5737 97.7018L73.033 98.543ZM73.24 98.7049L72.5191 99.3979L72.8142 99.7049H73.24V98.7049ZM74.5677 98.6061L73.8469 97.913L73.8469 97.913L74.5677 98.6061ZM74.7576 98.5073V99.5073H75.7576V98.5073H74.7576ZM74.9476 96.3362L74.7037 95.3664L73.9476 95.5565V96.3362H74.9476ZM76.6551 95.3503L77.3697 96.0499L77.4265 95.9918L77.4733 95.9253L76.6551 95.3503ZM83.9994 91.4013C83.9994 93.4749 83.4081 95.4989 82.3043 97.2171L83.987 98.2981C85.3005 96.2534 85.9994 93.8534 85.9994 91.4013H83.9994ZM83.2619 87.3699C83.7622 88.6449 84.0132 90.0122 83.9995 91.3913L85.9994 91.4113C86.0157 89.7769 85.7183 88.1547 85.1237 86.6393L83.2619 87.3699ZM81.0904 83.9695C82.0227 84.9393 82.7616 86.095 83.2619 87.3699L85.1237 86.6393C84.529 85.124 83.6486 83.7447 82.5321 82.5834L81.0904 83.9695ZM77.8361 81.7199C79.0514 82.2358 80.1581 82.9999 81.0904 83.9695L82.5321 82.5834C81.4155 81.422 80.085 80.5018 78.6176 79.8789L77.8361 81.7199ZM74.0105 80.9603C75.3205 80.9462 76.6209 81.204 77.8361 81.7199L78.6176 79.8789C77.1501 79.2559 75.5763 78.9433 73.9889 78.9604L74.0105 80.9603ZM68.4593 82.7097C70.1029 81.5674 72.0309 80.9604 73.9997 80.9604V78.9604C71.6174 78.9604 69.2921 79.6954 67.3179 81.0674L68.4593 82.7097ZM64.7663 87.3931C65.528 85.4806 66.8152 83.8523 68.4593 82.7097L67.3179 81.0674C65.3442 82.439 63.8117 84.3844 62.9083 86.6531L64.7663 87.3931ZM64.1936 93.4455C63.8048 91.4126 64.0046 89.3058 64.7663 87.3931L62.9083 86.6531C62.0049 88.9215 61.7691 91.4155 62.2292 93.8212L64.1936 93.4455ZM66.9426 98.7982C65.541 97.3404 64.5823 95.4783 64.1936 93.4455L62.2292 93.8212C62.6893 96.227 63.8258 98.4421 65.5009 100.184L66.9426 98.7982ZM72.0564 101.643C70.1242 101.243 68.3438 100.256 66.9426 98.7982L65.5009 100.184C67.1763 101.927 69.3159 103.119 71.6512 103.602L72.0564 101.643ZM77.8134 101.053C75.9911 101.838 73.9882 102.043 72.0564 101.643L71.6512 103.602C73.9868 104.085 76.4073 103.837 78.6048 102.89L77.8134 101.053ZM82.3043 97.2171C81.2007 98.9349 79.6363 100.268 77.8134 101.053L78.6048 102.89C80.8018 101.943 82.6732 100.343 83.987 98.2981L82.3043 97.2171ZM78.4127 93.1521C78.3962 92.4622 78.2331 91.7832 77.9335 91.1636L76.1329 92.0341C76.3073 92.3948 76.4036 92.7931 76.4133 93.2L78.4127 93.1521ZM77.9345 91.1656C77.6894 90.6558 77.2812 90.3475 77.1113 90.212L75.8642 91.7756C75.9635 91.8548 76.0202 91.9014 76.0677 91.9498C76.11 91.9929 76.1255 92.0187 76.1319 92.0321L77.9345 91.1656ZM77.1113 90.212C77.0682 90.1776 77.0409 90.1558 77.0181 90.1364C76.9956 90.1174 76.9914 90.1125 76.9961 90.1175L75.5544 91.5036C75.6664 91.6201 75.7983 91.723 75.8642 91.7756L77.1113 90.212ZM76.81 89.9655C76.3347 89.6647 75.7978 89.4777 75.2391 89.4206L75.0359 91.4103C75.2832 91.4355 75.524 91.5185 75.7405 91.6556L76.81 89.9655ZM75.5471 89.5032C75.0364 89.2739 74.4777 89.1765 73.92 89.2211L74.0794 91.2147C74.2998 91.1971 74.5221 91.2353 74.7279 91.3277L75.5471 89.5032ZM74.0201 89.2181C74.0288 89.2183 74.0357 89.2205 74.04 89.2228L73.1155 90.9963C73.3821 91.1353 73.6773 91.2115 73.9793 91.2177L74.0201 89.2181ZM74.04 89.2228C74.0442 89.2249 74.0443 89.2262 74.0425 89.2238L72.441 90.4218C72.6194 90.6602 72.8491 90.8574 73.1155 90.9963L74.04 89.2228ZM73.9626 89.1298C73.9131 89.0782 73.877 89.0405 73.8451 89.0052C73.8136 88.9702 73.7982 88.9505 73.7918 88.9416C73.7846 88.9318 73.799 88.9493 73.8163 88.9906C73.8346 89.0341 73.8619 89.1175 73.8619 89.2302H71.8619C71.8619 89.643 72.055 89.9527 72.1695 90.1114C72.2901 90.2786 72.4385 90.4302 72.5209 90.5159L73.9626 89.1298ZM73.8527 89.0943C73.8582 89.1348 73.8548 89.1765 73.8419 89.2166L71.9373 88.6061C71.8587 88.8514 71.8363 89.1114 71.8712 89.3661L73.8527 89.0943ZM73.8419 89.2166C73.829 89.2568 73.8062 89.2968 73.7723 89.3321L72.3306 87.9459C72.1496 88.1341 72.016 88.3606 71.9373 88.6061L73.8419 89.2166ZM73.7723 89.3321C73.7383 89.3674 73.6939 89.3971 73.6409 89.4155L72.9856 87.5259C72.7354 87.6126 72.5116 87.7576 72.3306 87.9459L73.7723 89.3321ZM73.6409 89.4155C73.5878 89.4339 73.53 89.4395 73.4731 89.431L73.7667 87.4527C73.5038 87.4137 73.2361 87.439 72.9856 87.5259L73.6409 89.4155ZM73.6199 89.4419H74.1896V87.4419H73.6199V89.4419ZM74.1896 89.4419C74.2163 89.4419 74.2259 89.4419 74.2319 89.442C74.2372 89.4421 74.2229 89.4421 74.1989 89.4396C74.173 89.4369 74.1302 89.4309 74.0778 89.4164C74.0232 89.4014 73.9693 89.3803 73.9182 89.3538C73.8688 89.3281 73.8319 89.3024 73.8084 89.2844C73.7862 89.2674 73.7734 89.2553 73.7733 89.2552C73.7732 89.2551 73.7782 89.2599 73.7926 89.2745C73.8069 89.2891 73.8238 89.3067 73.8486 89.3325L75.2903 87.9463C75.2503 87.9047 75.1935 87.8452 75.1401 87.7952C75.0851 87.7436 74.9836 87.6536 74.8409 87.5794C74.5318 87.4186 74.207 87.4419 74.1896 87.4419V89.4419ZM73.8624 89.3465L73.8624 89.3465L75.2766 87.9323L75.2766 87.9323L73.8624 89.3465ZM73.8486 89.3325L74.0385 89.53L75.4803 88.1439L75.2903 87.9463L73.8486 89.3325ZM74.0385 89.53L74.2284 89.7275L75.6702 88.3414L75.4803 88.1439L74.0385 89.53ZM74.3733 89.8519C74.792 90.147 75.3032 90.282 75.8156 90.2261L75.5989 88.2379C75.5771 88.2403 75.5514 88.2354 75.5253 88.2171L74.3733 89.8519ZM75.7073 90.232C76.5828 90.232 77.0616 89.661 77.3776 89.3308L75.9326 87.948C75.8344 88.0507 75.7665 88.1213 75.7072 88.1784C75.649 88.2345 75.621 88.2559 75.6114 88.2625C75.6067 88.2658 75.6241 88.2533 75.6575 88.2426C75.6913 88.2318 75.7126 88.232 75.7073 88.232V90.232ZM77.5564 89.0727C77.608 88.9652 77.6602 88.8767 77.7224 88.7721L76.0035 87.7497C75.9414 87.8541 75.8479 88.0105 75.7538 88.2062L77.5564 89.0727ZM77.7224 88.7721C77.764 88.7022 77.8377 88.5805 77.895 88.456C77.9559 88.3234 78.035 88.1131 78.035 87.8511H76.035C76.035 87.7801 76.0458 87.7224 76.0564 87.6827C76.0666 87.645 76.0769 87.6226 76.0778 87.6206C76.0786 87.6189 76.0749 87.6271 76.0611 87.6515C76.0469 87.6766 76.0298 87.7055 76.0035 87.7497L77.7224 88.7721ZM78.035 87.8511C78.035 87.4384 77.841 87.1285 77.728 86.9715C77.6076 86.8041 77.46 86.6528 77.376 86.5654L75.9342 87.9515C75.9831 88.0024 76.0192 88.0402 76.0508 88.0753C76.0822 88.1102 76.0978 88.1302 76.1045 88.1394C76.1119 88.1498 76.098 88.1328 76.0808 88.092C76.0628 88.0493 76.035 87.9654 76.035 87.8511H78.035ZM77.2249 86.4367L76.6552 86.0416L75.5155 87.6851L76.0853 88.0802L77.2249 86.4367ZM76.0853 85.8634C76.1506 85.8634 76.2293 85.8722 76.3144 85.8982C76.3998 85.9243 76.4692 85.9609 76.5216 85.9955C76.5701 86.0276 76.6005 86.056 76.608 86.063C76.6132 86.0679 76.6145 86.0696 76.5926 86.0468L75.1508 87.433C75.1896 87.4733 75.5121 87.8634 76.0853 87.8634V85.8634ZM76.5926 86.0468C76.4941 85.9444 76.3101 85.7543 75.977 85.5811L75.0542 87.3555C75.0862 87.3721 75.0996 87.3829 75.1035 87.3862C75.1101 87.3916 75.116 87.3968 75.1508 87.433L76.5926 86.0468ZM76.0916 85.6509C75.6729 85.3558 75.1617 85.2208 74.6493 85.2766L74.866 87.2649C74.8878 87.2625 74.9135 87.2673 74.9396 87.2857L76.0916 85.6509ZM75.7576 86.2707V84.6941H73.7576V86.2707H75.7576ZM75.7576 84.6941C75.7576 84.1709 75.4464 83.8688 75.3835 83.8034L73.9418 85.1896C73.9777 85.2269 73.9144 85.1677 73.8618 85.0765C73.7929 84.957 73.7576 84.822 73.7576 84.6941H75.7576ZM75.3835 83.8034C75.3477 83.7661 75.411 83.8253 75.4636 83.9166C75.5325 84.036 75.5677 84.1711 75.5677 84.299H73.5677C73.5677 84.8222 73.8789 85.1242 73.9418 85.1896L75.3835 83.8034ZM75.2886 83.6059C75.0524 83.3603 74.7766 83.2125 74.4633 83.1472C74.2214 83.0968 73.9615 83.1014 73.8098 83.1014V85.1014C73.8581 85.1014 73.8976 85.1014 73.9339 85.1018C73.9698 85.1021 73.9972 85.1027 74.0193 85.1037C74.0662 85.1056 74.071 85.1084 74.0553 85.1051C74.0335 85.1006 73.9901 85.0884 73.9398 85.0606C73.8898 85.0331 73.8588 85.0045 73.8468 84.9921L75.2886 83.6059ZM73.8098 83.1014H73.24V85.1014H73.8098V83.1014ZM73.24 83.1014C72.6897 83.1014 72.3814 83.4529 72.3292 83.5072L73.771 84.8933C73.8083 84.8544 73.7494 84.9228 73.6567 84.9807C73.5328 85.058 73.3858 85.1014 73.24 85.1014V83.1014ZM72.3292 83.5072C72.2919 83.546 72.3508 83.4776 72.4435 83.4198C72.5674 83.3425 72.7144 83.299 72.8602 83.299V85.299C73.4105 85.299 73.7188 84.9475 73.771 84.8933L72.3292 83.5072ZM71.8602 84.299V84.299H73.8602V84.299H71.8602ZM71.8602 84.299C71.8602 84.3264 71.8601 84.3376 71.86 84.3454C71.8598 84.3525 71.8598 84.3411 71.8618 84.3206C71.8639 84.2983 71.8689 84.2599 71.881 84.2121C71.8937 84.1622 71.9118 84.1119 71.9352 84.0633C71.9578 84.0162 71.9808 83.9804 71.9972 83.9571C72.0053 83.9457 72.012 83.937 72.0164 83.9315C72.0207 83.9261 72.0235 83.9229 72.0238 83.9224C72.0242 83.922 72.0231 83.9234 72.0197 83.927C72.0164 83.9306 72.0117 83.9357 72.0051 83.9427C71.9911 83.9576 71.9741 83.9753 71.9494 84.001L73.3911 85.3871C73.4312 85.3454 73.4884 85.2865 73.5363 85.2311C73.5864 85.1731 73.6699 85.0708 73.7377 84.9298C73.8808 84.632 73.8602 84.3237 73.8602 84.299H71.8602ZM71.6703 84.6941V86.2726H73.6703V84.6941H71.6703ZM72.4264 85.3027C71.5999 85.5106 70.8478 85.9464 70.2481 86.5589L71.6773 87.958C72.0237 87.6042 72.4518 87.3586 72.9141 87.2424L72.4264 85.3027ZM70.1387 86.6919C69.6699 87.3737 69.4118 88.1821 69.3932 89.0121L71.3927 89.0569C71.4027 88.6108 71.5416 88.1815 71.7867 87.825L70.1387 86.6919ZM69.3932 89.0581C69.4106 89.7948 69.5659 90.5219 69.8513 91.199L71.6943 90.4221C71.5069 89.9777 71.4042 89.4983 71.3927 89.0109L69.3932 89.0581ZM70.0137 91.4615C70.408 91.9213 70.8668 92.3192 71.3756 92.6413L72.4455 90.9515C72.1064 90.7368 71.7983 90.4702 71.5318 90.1595L70.0137 91.4615ZM71.4378 92.6776C71.9702 92.9632 72.5536 93.1372 73.1541 93.1879L73.3224 91.195C72.9963 91.1675 72.6772 91.0729 72.3833 90.9152L71.4378 92.6776ZM72.7769 93.0787C73.0812 93.237 73.3769 93.3103 73.5549 93.3567L74.0594 91.4214C73.8584 91.369 73.7752 91.3436 73.6997 91.3043L72.7769 93.0787ZM73.5549 93.3567C73.7559 93.4091 73.8391 93.4345 73.9146 93.4738L74.8374 91.6994C74.5331 91.5411 74.2374 91.4678 74.0594 91.4214L73.5549 93.3567ZM73.9146 93.4738C73.9868 93.5113 73.884 93.4761 73.8071 93.3161C73.7724 93.244 73.7609 93.1818 73.7571 93.1504C73.7547 93.1305 73.7559 93.1201 73.7559 93.1792H75.7559C75.7559 93.1057 75.7697 92.7826 75.6097 92.4496C75.4378 92.0922 75.1451 91.8594 74.8374 91.6994L73.9146 93.4738ZM73.7559 93.1792C73.7559 93.2385 73.7523 93.2783 73.7487 93.3027C73.7451 93.3268 73.7423 93.3311 73.7458 93.3215C73.7497 93.3109 73.7599 93.2875 73.7806 93.2583C73.8018 93.2285 73.8279 93.2013 73.8563 93.1792C73.9125 93.1354 73.9457 93.1355 73.9037 93.1446C73.8834 93.149 73.8504 93.1544 73.8012 93.1585C73.7521 93.1626 73.6919 93.1651 73.6181 93.1651V95.1651C74.0262 95.1651 74.6126 95.1256 75.0861 94.7564C75.6262 94.3352 75.7559 93.7134 75.7559 93.1792H73.7559ZM73.6863 93.1674C73.6068 93.162 73.5278 93.14 73.4536 93.1014L72.5297 94.8752C72.8463 95.0401 73.1933 95.1384 73.5499 95.1628L73.6863 93.1674ZM73.4536 93.1014C73.3793 93.0627 73.3105 93.0075 73.2525 92.9371L71.7081 94.2078C71.9343 94.4828 72.2132 94.7104 72.5297 94.8752L73.4536 93.1014ZM73.3222 93.0328C73.1382 92.7457 72.9261 92.4299 72.6599 92.1997C72.3234 91.9086 71.9446 91.7841 71.5325 91.7841V93.7841C71.5389 93.7841 71.5032 93.7847 71.4488 93.7652C71.3925 93.7449 71.3586 93.7185 71.3516 93.7124C71.3508 93.7117 71.3746 93.7326 71.4284 93.8036C71.4818 93.8739 71.5482 93.9714 71.6384 94.1121L73.3222 93.0328ZM71.5325 91.7841C71.256 91.7841 71.0373 91.874 70.905 91.9398C70.7804 92.0017 70.6596 92.0812 70.5929 92.1241L71.6764 93.8052C71.7194 93.7775 71.7467 93.7599 71.7704 93.7455C71.7934 93.7314 71.7997 93.7285 71.7957 93.7305C71.7923 93.7322 71.6913 93.7841 71.5325 93.7841V91.7841ZM70.5929 92.1241C70.4929 92.1886 70.4105 92.2411 70.3115 92.2929L71.2376 94.0655C71.4262 93.967 71.577 93.8692 71.6764 93.8052L70.5929 92.1241ZM70.1121 92.4301C69.6593 92.8305 69.351 93.3685 69.2264 93.9584L71.1832 94.3718C71.221 94.1925 71.313 94.038 71.437 93.9283L70.1121 92.4301ZM69.2048 94.1651C69.2048 94.4275 69.2837 94.6383 69.3452 94.7722C69.4029 94.8977 69.4773 95.0202 69.5192 95.0906L71.2375 94.067C71.2109 94.0225 71.1937 93.9934 71.1794 93.9682C71.1655 93.9435 71.1617 93.9352 71.1624 93.9368C71.1633 93.9387 71.1735 93.9609 71.1836 93.9984C71.1941 94.0378 71.2048 94.0949 71.2048 94.1651H69.2048ZM69.5192 95.0906C69.5811 95.1945 69.6329 95.2823 69.6841 95.3883L71.4851 94.5185C71.3918 94.3254 71.2991 94.1706 71.2374 94.067L69.5192 95.0906ZM69.8637 95.6465L70.0537 95.844L71.4954 94.4579L71.3055 94.2603L69.8637 95.6465ZM70.0257 95.8138C70.322 96.1484 70.6762 96.426 71.0721 96.6313L71.9929 94.8559C71.8183 94.7653 71.6588 94.6413 71.5233 94.4882L70.0257 95.8138ZM71.0705 96.6305L72.2083 97.2231L73.1322 95.4493L71.9944 94.8567L71.0705 96.6305ZM71.6703 96.3362V97.9147H73.6703V96.3362H71.6703ZM71.6703 97.9147C71.6703 97.9394 71.6496 98.2477 71.7927 98.5455C71.8605 98.6865 71.944 98.7888 71.9942 98.8468C72.0421 98.9022 72.0992 98.9611 72.1393 99.0029L73.581 97.6167C73.5563 97.591 73.5393 97.5733 73.5253 97.5584C73.5187 97.5514 73.514 97.5464 73.5107 97.5427C73.5074 97.5391 73.5062 97.5377 73.5066 97.5382C73.507 97.5386 73.5097 97.5418 73.5141 97.5472C73.5184 97.5527 73.5251 97.5614 73.5332 97.5728C73.5497 97.5961 73.5726 97.6319 73.5953 97.679C73.6187 97.7277 73.6367 97.7779 73.6494 97.8278C73.6616 97.8757 73.6665 97.9141 73.6686 97.9363C73.6706 97.9568 73.6706 97.9682 73.6704 97.9611C73.6703 97.9533 73.6703 97.9421 73.6703 97.9147H71.6703ZM71.8602 98.3098C71.8602 98.6068 71.9622 98.885 72.1571 99.1073C72.2992 99.2694 72.4761 99.3738 72.4922 99.3841L73.5737 97.7018C73.5425 97.6817 73.5467 97.6839 73.5554 97.6904C73.5671 97.6989 73.6109 97.7317 73.6609 97.7887C73.7152 97.8507 73.7713 97.9349 73.8106 98.0407C73.8493 98.145 73.8602 98.2393 73.8602 98.3098H71.8602ZM72.4922 99.3841C72.5087 99.3947 72.5171 99.4002 72.5247 99.4053C72.5314 99.4097 72.5341 99.4117 72.5346 99.4121C72.535 99.4124 72.5332 99.4111 72.5301 99.4084C72.527 99.4057 72.5232 99.4021 72.5191 99.3979L73.9609 98.0118C73.7991 97.8436 73.6371 97.7425 73.5737 97.7018L72.4922 99.3841ZM73.24 99.7049H74.3778V97.7049H73.24V99.7049ZM74.3778 99.7049C74.9281 99.7049 75.2364 99.3534 75.2886 99.2992L73.8469 97.913C73.8095 97.9519 73.8684 97.8835 73.9611 97.8256C74.085 97.7483 74.232 97.7049 74.3778 97.7049V99.7049ZM75.2886 99.2992C75.3259 99.2603 75.267 99.3287 75.1743 99.3866C75.0504 99.4639 74.9034 99.5073 74.7576 99.5073V97.5073C74.2074 97.5073 73.899 97.8588 73.8469 97.913L75.2886 99.2992ZM75.7576 98.5073C75.7576 98.6352 75.7224 98.7703 75.6535 98.8897C75.6009 98.981 75.5376 99.0402 75.5735 99.0028L74.1317 97.6167C74.0688 97.6821 73.7576 97.9842 73.7576 98.5073H75.7576ZM75.5735 99.0028C75.6364 98.9374 75.9476 98.6354 75.9476 98.1122H73.9476C73.9476 97.9844 73.9828 97.8493 74.0517 97.7299C74.1043 97.6386 74.1676 97.5794 74.1317 97.6167L75.5735 99.0028ZM75.9476 98.1122V96.3362H73.9476V98.1122H75.9476ZM75.1914 97.306C76.0179 97.0982 76.7701 96.6624 77.3697 96.0499L75.9406 94.6507C75.5941 95.0046 75.166 95.2502 74.7037 95.3664L75.1914 97.306ZM77.4733 95.9253C78.0273 95.137 78.3511 94.2047 78.4111 93.238L76.4149 93.1141C76.3775 93.7173 76.1756 94.2935 75.837 94.7753L77.4733 95.9253Z" fill="#00BC70" mask="url(#path-4-inside-1)"/>
<path d="M119.708 118.58L131 135.115C115.514 152.86 97.9301 158.641 91.0741 159.313L83.0083 141.568C99.7853 132.534 114.465 122.479 119.708 118.58Z" fill="white" stroke="#231F20" stroke-width="3" stroke-linecap="round" stroke-linejoin="round"/>
<path d="M78 78C83.6 78.4 91.6667 76.1667 95 75L95.5 88.5H87C82.0294 88.5 78 84.4706 78 79.5V78Z" fill="#F4F3F0"/>
<path d="M116.481 121L114.031 116.486C110.769 110.478 110.687 103.247 113.809 97.1666V97.1666C115.467 93.9378 115.311 90.0762 113.399 86.9913L107.749 77.8785C105.602 74.4163 101.2 73.1398 97.3623 74.5064C91.8043 76.4856 84.828 78.2819 79.7378 77.642C79.1331 77.566 78.5718 78.0205 78.5718 78.6299V78.6299C78.5718 84.4344 83.2773 89.1399 89.0818 89.1399H97.5265" stroke="#231F20" stroke-width="3" stroke-linecap="round"/>
<path d="M52.4712 114.378C52.4712 115.206 53.1428 115.878 53.9712 115.878C54.7996 115.878 55.4712 115.206 55.4712 114.378H52.4712ZM55.4712 113.538C55.4712 112.709 54.7996 112.038 53.9712 112.038C53.1428 112.038 52.4712 112.709 52.4712 113.538H55.4712ZM52.4712 101.038C52.4712 101.867 53.1428 102.538 53.9712 102.538C54.7996 102.538 55.4712 101.867 55.4712 101.038H52.4712ZM55.4712 99.8257C55.4712 98.9973 54.7996 98.3257 53.9712 98.3257C53.1428 98.3257 52.4712 98.9973 52.4712 99.8257H55.4712ZM52.4712 87.3266C52.4712 88.155 53.1428 88.8266 53.9712 88.8266C54.7996 88.8266 55.4712 88.155 55.4712 87.3266H52.4712ZM55.4712 86.4863C55.4712 85.6579 54.7996 84.9863 53.9712 84.9863C53.1428 84.9863 52.4712 85.6579 52.4712 86.4863H55.4712ZM52.4712 75.6618C52.4712 76.4903 53.1428 77.1618 53.9712 77.1618C54.7996 77.1618 55.4712 76.4903 55.4712 75.6618H52.4712ZM92.8004 75.428C92.8004 76.2564 93.472 76.928 94.3004 76.928C95.1288 76.928 95.8004 76.2564 95.8004 75.428H92.8004ZM95.8004 89.1399C95.8004 88.3115 95.1288 87.6399 94.3004 87.6399C93.472 87.6399 92.8004 88.3115 92.8004 89.1399H95.8004ZM55.6646 124.728C55.4465 123.929 54.6218 123.458 53.8226 123.676C53.0234 123.894 52.5523 124.719 52.7704 125.518L55.6646 124.728ZM60.9712 54.3436H87.3004V51.3436H60.9712V54.3436ZM87.3004 128.776H60.9712V131.776H87.3004V128.776ZM55.4712 114.378V113.538H52.4712V114.378H55.4712ZM55.4712 101.038V99.8257H52.4712V101.038H55.4712ZM55.4712 87.3266V86.4863H52.4712V87.3266H55.4712ZM55.4712 75.6618V59.8436H52.4712V75.6618H55.4712ZM92.8004 59.8436V75.428H95.8004V59.8436H92.8004ZM92.8004 89.1399V123.276H95.8004V89.1399H92.8004ZM60.9712 128.776C58.4381 128.776 56.3014 127.062 55.6646 124.728L52.7704 125.518C53.7542 129.123 57.051 131.776 60.9712 131.776V128.776ZM87.3004 131.776C91.9948 131.776 95.8004 127.97 95.8004 123.276H92.8004C92.8004 126.313 90.338 128.776 87.3004 128.776V131.776ZM87.3004 54.3436C90.338 54.3436 92.8004 56.8061 92.8004 59.8436H95.8004C95.8004 55.1492 91.9948 51.3436 87.3004 51.3436V54.3436ZM60.9712 51.3436C56.2768 51.3436 52.4712 55.1492 52.4712 59.8436H55.4712C55.4712 56.8061 57.9336 54.3436 60.9712 54.3436V51.3436Z" fill="#231F20"/>
<rect x="45.0986" y="75.428" width="12.9053" height="11.2922" rx="5.64609" fill="#F4F3F0" stroke="#231F20" stroke-width="3" stroke-linecap="round"/>
<rect x="45.0986" y="114.144" width="12.9053" height="11.2922" rx="5.64609" fill="#F4F3F0" stroke="#231F20" stroke-width="3" stroke-linecap="round"/>
<rect x="40.2593" y="86.7202" width="17.7449" height="13.7119" rx="6.85597" fill="#F4F3F0" stroke="#231F20" stroke-width="3" stroke-linecap="round"/>
<rect x="40.2593" y="100.432" width="17.7449" height="13.7119" rx="6.85597" fill="#F4F3F0" stroke="#231F20" stroke-width="3" stroke-linecap="round"/>
<path d="M64.457 52.8436H83.8151V54.4897C83.8151 56.6989 82.0242 58.4897 79.8151 58.4897H68.457C66.2479 58.4897 64.457 56.6989 64.457 54.4897V52.8436Z" stroke="#231F20" stroke-width="3" stroke-linecap="round"/>
<path d="M46.7119 56.0699H33" stroke="#00BC70" stroke-width="3" stroke-linecap="round"/>
<path d="M101.56 56.0699H115.271" stroke="#00BC70" stroke-width="3" stroke-linecap="round"/>
<path d="M54.7778 42.358L47.5186 32.679" stroke="#00BC70" stroke-width="3" stroke-linecap="round"/>
<path d="M93.4942 42.358L100.753 32.679" stroke="#00BC70" stroke-width="3" stroke-linecap="round"/>
<path d="M74.1362 35.9053V23" stroke="#00BC70" stroke-width="3" stroke-linecap="round"/>
</svg>
