<svg width="32" height="32" viewBox="0 0 32 32" fill="none" xmlns="http://www.w3.org/2000/svg">
<path d="M19.3333 16C19.3333 15.0799 19.0078 14.2943 18.3568 13.6432C17.7057 12.9922 16.9201 12.6667 16 12.6667C15.0799 12.6667 14.2943 12.9922 13.6432 13.6432C12.9922 14.2943 12.6667 15.0799 12.6667 16C12.6667 16.9201 12.9922 17.7057 13.6432 18.3568C14.2943 19.0078 15.0799 19.3333 16 19.3333C16.9201 19.3333 17.7057 19.0078 18.3568 18.3568C19.0078 17.7057 19.3333 16.9201 19.3333 16ZM21.1302 16C21.1302 17.4236 20.6311 18.6345 19.6328 19.6328C18.6345 20.6311 17.4236 21.1302 16 21.1302C14.5764 21.1302 13.3655 20.6311 12.3672 19.6328C11.3689 18.6345 10.8698 17.4236 10.8698 16C10.8698 14.5764 11.3689 13.3655 12.3672 12.3672C13.3655 11.3689 14.5764 10.8698 16 10.8698C17.4236 10.8698 18.6345 11.3689 19.6328 12.3672C20.6311 13.3655 21.1302 14.5764 21.1302 16ZM22.5365 10.6615C22.5365 10.9913 22.4193 11.2734 22.1849 11.5078C21.9505 11.7422 21.6684 11.8594 21.3385 11.8594C21.0087 11.8594 20.7266 11.7422 20.4922 11.5078C20.2578 11.2734 20.1406 10.9913 20.1406 10.6615C20.1406 10.3316 20.2578 10.0495 20.4922 9.8151C20.7266 9.58073 21.0087 9.46354 21.3385 9.46354C21.6684 9.46354 21.9505 9.58073 22.1849 9.8151C22.4193 10.0495 22.5365 10.3316 22.5365 10.6615ZM16 7.79688C15.9392 7.79688 15.6072 7.7947 15.0039 7.79036C14.4006 7.78602 13.9427 7.78602 13.6302 7.79036C13.3177 7.7947 12.8989 7.80773 12.3737 7.82943C11.8485 7.85113 11.4015 7.89453 11.0326 7.95964C10.6636 8.02474 10.3533 8.10503 10.1016 8.20052C9.66753 8.37413 9.28559 8.62587 8.95573 8.95573C8.62587 9.28559 8.37413 9.66753 8.20052 10.1016C8.10503 10.3533 8.02474 10.6636 7.95964 11.0326C7.89453 11.4015 7.85113 11.8485 7.82943 12.3737C7.80773 12.8989 7.7947 13.3177 7.79036 13.6302C7.78602 13.9427 7.78602 14.4006 7.79036 15.0039C7.7947 15.6072 7.79688 15.9392 7.79688 16C7.79688 16.0608 7.7947 16.3928 7.79036 16.9961C7.78602 17.5994 7.78602 18.0573 7.79036 18.3698C7.7947 18.6823 7.80773 19.1011 7.82943 19.6263C7.85113 20.1515 7.89453 20.5985 7.95964 20.9674C8.02474 21.3364 8.10503 21.6467 8.20052 21.8984C8.37413 22.3325 8.62587 22.7144 8.95573 23.0443C9.28559 23.3741 9.66753 23.6259 10.1016 23.7995C10.3533 23.895 10.6636 23.9753 11.0326 24.0404C11.4015 24.1055 11.8485 24.1489 12.3737 24.1706C12.8989 24.1923 13.3177 24.2053 13.6302 24.2096C13.9427 24.214 14.4006 24.214 15.0039 24.2096C15.6072 24.2053 15.9392 24.2031 16 24.2031C16.0608 24.2031 16.3928 24.2053 16.9961 24.2096C17.5994 24.214 18.0573 24.214 18.3698 24.2096C18.6823 24.2053 19.1011 24.1923 19.6263 24.1706C20.1515 24.1489 20.5985 24.1055 20.9674 24.0404C21.3364 23.9753 21.6467 23.895 21.8984 23.7995C22.3325 23.6259 22.7144 23.3741 23.0443 23.0443C23.3741 22.7144 23.6259 22.3325 23.7995 21.8984C23.895 21.6467 23.9753 21.3364 24.0404 20.9674C24.1055 20.5985 24.1489 20.1515 24.1706 19.6263C24.1923 19.1011 24.2053 18.6823 24.2096 18.3698C24.214 18.0573 24.214 17.5994 24.2096 16.9961C24.2053 16.3928 24.2031 16.0608 24.2031 16C24.2031 15.9392 24.2053 15.6072 24.2096 15.0039C24.214 14.4006 24.214 13.9427 24.2096 13.6302C24.2053 13.3177 24.1923 12.8989 24.1706 12.3737C24.1489 11.8485 24.1055 11.4015 24.0404 11.0326C23.9753 10.6636 23.895 10.3533 23.7995 10.1016C23.6259 9.66753 23.3741 9.28559 23.0443 8.95573C22.7144 8.62587 22.3325 8.37413 21.8984 8.20052C21.6467 8.10503 21.3364 8.02474 20.9674 7.95964C20.5985 7.89453 20.1515 7.85113 19.6263 7.82943C19.1011 7.80773 18.6823 7.7947 18.3698 7.79036C18.0573 7.78602 17.5994 7.78602 16.9961 7.79036C16.3928 7.7947 16.0608 7.79688 16 7.79688ZM26 16C26 17.9878 25.9783 19.3637 25.9349 20.1276C25.8481 21.9332 25.3099 23.3307 24.3203 24.3203C23.3307 25.3099 21.9332 25.8481 20.1276 25.9349C19.3637 25.9783 17.9878 26 16 26C14.0122 26 12.6363 25.9783 11.8724 25.9349C10.0668 25.8481 8.66927 25.3099 7.67969 24.3203C6.6901 23.3307 6.15191 21.9332 6.0651 20.1276C6.0217 19.3637 6 17.9878 6 16C6 14.0122 6.0217 12.6363 6.0651 11.8724C6.15191 10.0668 6.6901 8.66927 7.67969 7.67969C8.66927 6.6901 10.0668 6.15191 11.8724 6.0651C12.6363 6.0217 14.0122 6 16 6C17.9878 6 19.3637 6.0217 20.1276 6.0651C21.9332 6.15191 23.3307 6.6901 24.3203 7.67969C25.3099 8.66927 25.8481 10.0668 25.9349 11.8724C25.9783 12.6363 26 14.0122 26 16Z" fill="white"/>
</svg>
