<svg width="32" height="32" viewBox="0 0 32 32" fill="none" xmlns="http://www.w3.org/2000/svg">
<path d="M25.575 9.79009C25.057 10.5514 24.4111 11.2172 23.666 11.7581C23.674 11.8681 23.678 12.0348 23.678 12.2581C23.6759 13.294 23.5251 14.3241 23.23 15.3171C22.9222 16.3548 22.4636 17.3417 21.869 18.2461C21.2669 19.1732 20.5344 20.0088 19.694 20.7271C18.7931 21.4805 17.7627 22.0636 16.653 22.4481C15.4311 22.8823 14.1427 23.0995 12.846 23.0901C10.7713 23.1045 8.73814 22.5081 7 21.3751C7.3052 21.4081 7.61202 21.4238 7.919 21.4221C9.63451 21.4401 11.3037 20.8658 12.645 19.7961C11.8508 19.7814 11.0809 19.5191 10.4429 19.0458C9.8049 18.5725 9.33053 17.9119 9.086 17.1561C9.32385 17.1937 9.5642 17.2134 9.805 17.2151C10.1425 17.2148 10.4786 17.1711 10.805 17.0851C9.94507 16.9163 9.17154 16.4513 8.619 15.7711C8.04824 15.0943 7.74076 14.2344 7.753 13.3491V13.2981C8.27976 13.5945 8.86995 13.7601 9.474 13.7811C8.95682 13.4374 8.53175 12.9721 8.236 12.4261C7.9247 11.8506 7.76662 11.2046 7.77695 10.5504C7.78729 9.89612 7.96568 9.25551 8.295 8.69009C9.24332 9.85888 10.4256 10.8164 11.766 11.5011C13.1241 12.2031 14.6179 12.6032 16.145 12.6741C16.0835 12.3875 16.052 12.0952 16.051 11.8021C16.0528 11.0389 16.2837 10.2939 16.7137 9.66341C17.1438 9.03296 17.7532 8.54614 18.4632 8.26601C19.1731 7.98589 19.9507 7.92535 20.6954 8.09225C21.4401 8.25914 22.1176 8.6458 22.64 9.20211C23.4927 9.03864 24.3103 8.72763 25.056 8.2831C24.7807 9.16805 24.1833 9.91747 23.382 10.3831C24.1386 10.2967 24.8779 10.0967 25.575 9.79009V9.79009Z" fill="white"/>
</svg>
