<svg width="32" height="32" viewBox="0 0 32 32" fill="none" xmlns="http://www.w3.org/2000/svg">
<path d="M7.24773 24.1076H11.3157V11.8895H7.24773V24.1076ZM11.5797 8.11748C11.5824 7.83516 11.5275 7.55527 11.4185 7.29482C11.3095 7.03436 11.1487 6.7988 10.9457 6.60249C10.7264 6.39848 10.4685 6.24031 10.1873 6.13728C9.90597 6.03425 9.60695 5.98842 9.30773 6.00248C8.69599 5.97749 8.09875 6.19285 7.64373 6.60249C7.43423 6.79418 7.2684 7.02866 7.15746 7.29006C7.04652 7.55145 6.99306 7.83363 7.00072 8.11748C6.99422 8.3982 7.04644 8.6772 7.15407 8.93655C7.2617 9.1959 7.42236 9.42988 7.62572 9.62351C7.84299 9.82836 8.09905 9.98769 8.37881 10.0921C8.65857 10.1965 8.95637 10.2439 9.25472 10.2315H9.27273C9.5779 10.2455 9.88283 10.1989 10.1699 10.0946C10.4571 9.99023 10.7207 9.83014 10.9457 9.62351C11.1511 9.43159 11.3137 9.19855 11.4229 8.93957C11.5322 8.6806 11.5856 8.40152 11.5797 8.12051V8.11748ZM21.8797 24.1076H25.9477V17.0986C26.0549 15.6182 25.5952 14.1525 24.6618 12.9985C24.2284 12.5358 23.7003 12.172 23.1135 11.932C22.5268 11.6919 21.8951 11.5812 21.2617 11.6075C20.519 11.5845 19.784 11.7641 19.1355 12.127C18.487 12.4899 17.9496 13.0224 17.5807 13.6675H17.6157V11.8885H13.5477C13.5831 12.6632 13.5831 16.7372 13.5477 24.1106H17.6157V17.2775C17.6 16.9443 17.6416 16.6107 17.7387 16.2915C17.9134 15.8826 18.1857 15.5227 18.5317 15.2435C18.9006 14.9508 19.3611 14.7981 19.8317 14.8125C21.1937 14.8125 21.8747 15.7342 21.8747 17.5776L21.8797 24.1076Z" fill="white"/>
</svg>
