<svg width="32" height="32" viewBox="0 0 32 32" fill="none" xmlns="http://www.w3.org/2000/svg">
<path d="M21.183 5.14623V8.25823H19.333C19.0881 8.22741 18.8394 8.24929 18.6037 8.32242C18.3679 8.39555 18.1505 8.51822 17.966 8.68223C17.7036 9.05251 17.5784 9.50264 17.612 9.95523V12.1832H21.065L20.605 15.6722H17.611V24.6182H14.004V15.6712H11V12.1832H14.005V9.61323C13.9668 8.99286 14.0559 8.37123 14.2667 7.78654C14.4775 7.20185 14.8057 6.66645 15.231 6.21323C15.6665 5.80223 16.1806 5.48339 16.7423 5.27582C17.304 5.06824 17.9019 4.97621 18.5 5.00523C19.3965 4.99049 20.293 5.0376 21.183 5.14623Z" fill="white"/>
</svg>
